# MagicaVoxel @ Ephtracy

# group
o 

# material
mtllib egg.mtl
usemtl palette

# normals
vn -1 0 0
vn 1 0 0
vn 0 0 1
vn 0 0 -1
vn 0 -1 0
vn 0 1 0

# texcoords
vt 0.00195312 0.5
vt 0.00585938 0.5
vt 0.00976562 0.5
vt 0.0136719 0.5
vt 0.0175781 0.5

# verts
v -0.7 0.4 0
v -0.7 0.4 -0.1
v -0.7 1 0
v -0.7 1 -0.1
v -0.6 0.3 0
v -0.6 0.3 -0.1
v -0.6 0.4 0
v -0.6 0.4 -0.1
v -0.6 1 0
v -0.6 1 -0.1
v -0.6 1.2 0
v -0.6 1.2 -0.1
v -0.5 0.2 0
v -0.5 0.2 -0.1
v -0.5 0.3 0
v -0.5 0.3 -0.1
v -0.5 1.2 0
v -0.5 1.2 -0.1
v -0.5 1.4 0
v -0.5 1.4 -0.1
v -0.4 0.1 0
v -0.4 0.1 -0.1
v -0.4 0.2 0
v -0.4 0.2 -0.1
v -0.4 1.4 0
v -0.4 1.4 -0.1
v -0.4 1.5 0
v -0.4 1.5 -0.1
v -0.3 1.5 0
v -0.3 1.5 -0.1
v -0.3 1.6 0
v -0.3 1.6 -0.1
v -0.2 0 0
v -0.2 0 -0.1
v -0.2 0.1 0
v -0.2 0.1 -0.1
v -0.2 1.6 0
v -0.2 1.6 -0.1
v -0.2 1.7 0
v -0.2 1.7 -0.1
v 0.2 0 0
v 0.2 0 -0.1
v 0.2 0.1 0
v 0.2 0.1 -0.1
v 0.2 1.6 0
v 0.2 1.6 -0.1
v 0.2 1.7 0
v 0.2 1.7 -0.1
v 0.3 1.5 0
v 0.3 1.5 -0.1
v 0.3 1.6 0
v 0.3 1.6 -0.1
v 0.4 0.1 0
v 0.4 0.1 -0.1
v 0.4 0.2 0
v 0.4 0.2 -0.1
v 0.4 1.4 0
v 0.4 1.4 -0.1
v 0.4 1.5 0
v 0.4 1.5 -0.1
v 0.5 0.2 0
v 0.5 0.2 -0.1
v 0.5 0.3 0
v 0.5 0.3 -0.1
v 0.5 1.2 0
v 0.5 1.2 -0.1
v 0.5 1.4 0
v 0.5 1.4 -0.1
v 0.6 0.3 0
v 0.6 0.3 -0.1
v 0.6 0.4 0
v 0.6 0.4 -0.1
v 0.6 1 0
v 0.6 1 -0.1
v 0.6 1.2 0
v 0.6 1.2 -0.1
v 0.7 0.4 0
v 0.7 0.4 -0.1
v 0.7 1 0
v 0.7 1 -0.1
v -0.7 0.4 0
v -0.7 1 0
v -0.6 0.3 0
v -0.6 0.4 0
v -0.6 0.6 0
v -0.6 1 0
v -0.6 1.2 0
v -0.5 0.2 0
v -0.5 0.3 0
v -0.5 0.4 0
v -0.5 0.6 0
v -0.5 1 0
v -0.5 1.2 0
v -0.5 1.4 0
v -0.4 0.1 0
v -0.4 0.2 0
v -0.4 0.3 0
v -0.4 0.4 0
v -0.4 1.2 0
v -0.4 1.4 0
v -0.4 1.5 0
v -0.3 0.7 0
v -0.3 1.2 0
v -0.3 1.4 0
v -0.3 1.5 0
v -0.3 1.6 0
v -0.2 0 0
v -0.2 0.1 0
v -0.2 0.2 0
v -0.2 0.3 0
v -0.2 0.6 0
v -0.2 0.7 0
v -0.2 1.2 0
v -0.2 1.4 0
v -0.2 1.5 0
v -0.2 1.6 0
v -0.2 1.7 0
v -0.1 0.5 0
v -0.1 0.6 0
v -0.1 1.4 0
v -0.1 1.5 0
v 0 0.4 0
v 0 0.5 0
v 0 1.5 0
v 0 1.6 0
v 0.1 1.3 0
v 0.1 1.4 0
v 0.2 0 0
v 0.2 0.1 0
v 0.2 0.2 0
v 0.2 0.3 0
v 0.2 1.2 0
v 0.2 1.3 0
v 0.2 1.4 0
v 0.2 1.5 0
v 0.2 1.6 0
v 0.2 1.7 0
v 0.3 1.2 0
v 0.3 1.3 0
v 0.3 1.4 0
v 0.3 1.5 0
v 0.3 1.6 0
v 0.4 0.1 0
v 0.4 0.2 0
v 0.4 0.3 0
v 0.4 0.4 0
v 0.4 0.5 0
v 0.4 1.2 0
v 0.4 1.4 0
v 0.4 1.5 0
v 0.5 0.2 0
v 0.5 0.3 0
v 0.5 0.4 0
v 0.5 1 0
v 0.5 1.2 0
v 0.5 1.4 0
v 0.6 0.3 0
v 0.6 0.4 0
v 0.6 0.5 0
v 0.6 1 0
v 0.6 1.2 0
v 0.7 0.4 0
v 0.7 1 0
v -0.7 0.4 -0.1
v -0.7 1 -0.1
v -0.6 0.3 -0.1
v -0.6 0.4 -0.1
v -0.6 0.6 -0.1
v -0.6 1 -0.1
v -0.6 1.2 -0.1
v -0.5 0.2 -0.1
v -0.5 0.3 -0.1
v -0.5 0.4 -0.1
v -0.5 0.6 -0.1
v -0.5 1 -0.1
v -0.5 1.2 -0.1
v -0.5 1.4 -0.1
v -0.4 0.1 -0.1
v -0.4 0.2 -0.1
v -0.4 0.3 -0.1
v -0.4 0.4 -0.1
v -0.4 1.2 -0.1
v -0.4 1.4 -0.1
v -0.4 1.5 -0.1
v -0.3 0.7 -0.1
v -0.3 1.2 -0.1
v -0.3 1.4 -0.1
v -0.3 1.5 -0.1
v -0.3 1.6 -0.1
v -0.2 0 -0.1
v -0.2 0.1 -0.1
v -0.2 0.2 -0.1
v -0.2 0.3 -0.1
v -0.2 0.6 -0.1
v -0.2 0.7 -0.1
v -0.2 1.2 -0.1
v -0.2 1.4 -0.1
v -0.2 1.5 -0.1
v -0.2 1.6 -0.1
v -0.2 1.7 -0.1
v -0.1 0.5 -0.1
v -0.1 0.6 -0.1
v -0.1 1.4 -0.1
v -0.1 1.5 -0.1
v 0 0.4 -0.1
v 0 0.5 -0.1
v 0 1.5 -0.1
v 0 1.6 -0.1
v 0.1 1.3 -0.1
v 0.1 1.4 -0.1
v 0.2 0 -0.1
v 0.2 0.1 -0.1
v 0.2 0.2 -0.1
v 0.2 0.3 -0.1
v 0.2 1.2 -0.1
v 0.2 1.3 -0.1
v 0.2 1.4 -0.1
v 0.2 1.5 -0.1
v 0.2 1.6 -0.1
v 0.2 1.7 -0.1
v 0.3 1.2 -0.1
v 0.3 1.3 -0.1
v 0.3 1.4 -0.1
v 0.3 1.5 -0.1
v 0.3 1.6 -0.1
v 0.4 0.1 -0.1
v 0.4 0.2 -0.1
v 0.4 0.3 -0.1
v 0.4 0.4 -0.1
v 0.4 0.5 -0.1
v 0.4 1.2 -0.1
v 0.4 1.4 -0.1
v 0.4 1.5 -0.1
v 0.5 0.2 -0.1
v 0.5 0.3 -0.1
v 0.5 0.4 -0.1
v 0.5 1 -0.1
v 0.5 1.2 -0.1
v 0.5 1.4 -0.1
v 0.6 0.3 -0.1
v 0.6 0.4 -0.1
v 0.6 0.5 -0.1
v 0.6 1 -0.1
v 0.6 1.2 -0.1
v 0.7 0.4 -0.1
v 0.7 1 -0.1
v -0.2 0 0
v 0.2 0 0
v -0.2 0 -0.1
v 0.2 0 -0.1
v -0.4 0.1 0
v -0.2 0.1 0
v 0.2 0.1 0
v 0.4 0.1 0
v -0.4 0.1 -0.1
v -0.2 0.1 -0.1
v 0.2 0.1 -0.1
v 0.4 0.1 -0.1
v -0.5 0.2 0
v -0.4 0.2 0
v 0.4 0.2 0
v 0.5 0.2 0
v -0.5 0.2 -0.1
v -0.4 0.2 -0.1
v 0.4 0.2 -0.1
v 0.5 0.2 -0.1
v -0.6 0.3 0
v -0.5 0.3 0
v 0.5 0.3 0
v 0.6 0.3 0
v -0.6 0.3 -0.1
v -0.5 0.3 -0.1
v 0.5 0.3 -0.1
v 0.6 0.3 -0.1
v -0.7 0.4 0
v -0.6 0.4 0
v 0.6 0.4 0
v 0.7 0.4 0
v -0.7 0.4 -0.1
v -0.6 0.4 -0.1
v 0.6 0.4 -0.1
v 0.7 0.4 -0.1
v -0.7 1 0
v -0.6 1 0
v 0.6 1 0
v 0.7 1 0
v -0.7 1 -0.1
v -0.6 1 -0.1
v 0.6 1 -0.1
v 0.7 1 -0.1
v -0.6 1.2 0
v -0.5 1.2 0
v 0.5 1.2 0
v 0.6 1.2 0
v -0.6 1.2 -0.1
v -0.5 1.2 -0.1
v 0.5 1.2 -0.1
v 0.6 1.2 -0.1
v -0.5 1.4 0
v -0.4 1.4 0
v 0.4 1.4 0
v 0.5 1.4 0
v -0.5 1.4 -0.1
v -0.4 1.4 -0.1
v 0.4 1.4 -0.1
v 0.5 1.4 -0.1
v -0.4 1.5 0
v -0.3 1.5 0
v 0.3 1.5 0
v 0.4 1.5 0
v -0.4 1.5 -0.1
v -0.3 1.5 -0.1
v 0.3 1.5 -0.1
v 0.4 1.5 -0.1
v -0.3 1.6 0
v -0.2 1.6 0
v 0.2 1.6 0
v 0.3 1.6 0
v -0.3 1.6 -0.1
v -0.2 1.6 -0.1
v 0.2 1.6 -0.1
v 0.3 1.6 -0.1
v -0.2 1.7 0
v 0.2 1.7 0
v -0.2 1.7 -0.1
v 0.2 1.7 -0.1

# faces
f 3/1/1 2/1/1 1/1/1
f 4/1/1 2/1/1 3/1/1
f 7/1/1 6/1/1 5/1/1
f 8/1/1 6/1/1 7/1/1
f 11/1/1 10/1/1 9/1/1
f 12/1/1 10/1/1 11/1/1
f 15/1/1 14/1/1 13/1/1
f 16/1/1 14/1/1 15/1/1
f 19/1/1 18/1/1 17/1/1
f 20/1/1 18/1/1 19/1/1
f 23/1/1 22/1/1 21/1/1
f 24/1/1 22/1/1 23/1/1
f 27/1/1 26/1/1 25/1/1
f 28/1/1 26/1/1 27/1/1
f 31/1/1 30/1/1 29/1/1
f 32/1/1 30/1/1 31/1/1
f 35/1/1 34/1/1 33/1/1
f 36/1/1 34/1/1 35/1/1
f 39/1/1 38/1/1 37/1/1
f 40/1/1 38/1/1 39/1/1
f 41/1/2 42/1/2 43/1/2
f 43/1/2 42/1/2 44/1/2
f 45/1/2 46/1/2 47/1/2
f 47/1/2 46/1/2 48/1/2
f 49/1/2 50/1/2 51/1/2
f 51/1/2 50/1/2 52/1/2
f 53/1/2 54/1/2 55/1/2
f 55/1/2 54/1/2 56/1/2
f 57/1/2 58/1/2 59/1/2
f 59/1/2 58/1/2 60/1/2
f 61/1/2 62/1/2 63/1/2
f 63/1/2 62/1/2 64/1/2
f 65/1/2 66/1/2 67/1/2
f 67/1/2 66/1/2 68/1/2
f 69/1/2 70/1/2 71/1/2
f 71/1/2 70/1/2 72/1/2
f 73/1/2 74/1/2 75/1/2
f 75/1/2 74/1/2 76/1/2
f 77/1/2 78/1/2 79/1/2
f 79/1/2 78/1/2 80/1/2
f 84/1/3 82/1/3 81/1/3
f 85/1/3 82/1/3 84/1/3
f 86/1/3 82/1/3 85/1/3
f 89/1/3 84/1/3 83/1/3
f 90/4/3 85/4/3 84/4/3
f 90/1/3 84/1/3 89/1/3
f 91/2/3 86/2/3 85/2/3
f 91/4/3 85/4/3 90/4/3
f 92/1/3 87/1/3 86/1/3
f 92/2/3 86/2/3 91/2/3
f 93/1/3 87/1/3 92/1/3
f 96/1/3 89/1/3 88/1/3
f 97/4/3 90/4/3 89/4/3
f 97/1/3 89/1/3 96/1/3
f 98/2/3 91/2/3 90/2/3
f 98/4/3 90/4/3 97/4/3
f 98/2/3 92/2/3 91/2/3
f 98/2/3 93/2/3 92/2/3
f 99/1/3 94/1/3 93/1/3
f 99/2/3 93/2/3 98/2/3
f 100/1/3 94/1/3 99/1/3
f 102/2/3 98/2/3 97/2/3
f 102/2/3 99/2/3 98/2/3
f 102/2/3 100/2/3 99/2/3
f 103/2/3 100/2/3 102/2/3
f 104/1/3 101/1/3 100/1/3
f 104/2/3 100/2/3 103/2/3
f 105/1/3 101/1/3 104/1/3
f 108/1/3 96/1/3 95/1/3
f 109/4/3 97/4/3 96/4/3
f 109/1/3 96/1/3 108/1/3
f 110/2/3 102/2/3 97/2/3
f 110/4/3 97/4/3 109/4/3
f 111/2/3 102/2/3 110/2/3
f 112/3/3 103/3/3 102/3/3
f 112/2/3 102/2/3 111/2/3
f 113/2/3 104/2/3 103/2/3
f 113/3/3 103/3/3 112/3/3
f 113/2/3 105/2/3 104/2/3
f 114/2/3 105/2/3 113/2/3
f 115/1/3 106/1/3 105/1/3
f 115/2/3 105/2/3 114/2/3
f 116/1/3 106/1/3 115/1/3
f 118/2/3 111/2/3 110/2/3
f 118/2/3 110/2/3 109/2/3
f 119/3/3 114/3/3 113/3/3
f 119/2/3 111/2/3 118/2/3
f 119/3/3 112/3/3 111/3/3
f 119/3/3 113/3/3 112/3/3
f 120/2/3 115/2/3 114/2/3
f 120/3/3 114/3/3 119/3/3
f 120/2/3 116/2/3 115/2/3
f 121/2/3 116/2/3 120/2/3
f 122/2/3 118/2/3 109/2/3
f 123/3/3 119/3/3 118/3/3
f 123/2/3 118/2/3 122/2/3
f 123/3/3 120/3/3 119/3/3
f 123/3/3 121/3/3 120/3/3
f 124/2/3 116/2/3 121/2/3
f 124/3/3 121/3/3 123/3/3
f 125/1/3 117/1/3 116/1/3
f 125/2/3 116/2/3 124/2/3
f 126/3/3 124/3/3 123/3/3
f 126/3/3 123/3/3 122/3/3
f 126/3/3 125/3/3 124/3/3
f 127/3/3 125/3/3 126/3/3
f 128/1/3 108/1/3 107/1/3
f 129/4/3 109/4/3 108/4/3
f 129/1/3 108/1/3 128/1/3
f 130/2/3 122/2/3 109/2/3
f 130/4/3 109/4/3 129/4/3
f 131/2/3 122/2/3 130/2/3
f 132/3/3 126/3/3 122/3/3
f 133/5/3 127/5/3 126/5/3
f 133/3/3 126/3/3 132/3/3
f 134/3/3 125/3/3 127/3/3
f 134/5/3 127/5/3 133/5/3
f 135/3/3 125/3/3 134/3/3
f 136/1/3 117/1/3 125/1/3
f 136/3/3 125/3/3 135/3/3
f 137/1/3 117/1/3 136/1/3
f 138/5/3 133/5/3 132/5/3
f 138/3/3 132/3/3 122/3/3
f 139/3/3 135/3/3 134/3/3
f 139/5/3 133/5/3 138/5/3
f 139/3/3 134/3/3 133/3/3
f 140/3/3 135/3/3 139/3/3
f 141/1/3 136/1/3 135/1/3
f 141/3/3 135/3/3 140/3/3
f 142/1/3 136/1/3 141/1/3
f 143/1/3 130/1/3 129/1/3
f 144/4/3 131/4/3 130/4/3
f 144/1/3 130/1/3 143/1/3
f 145/2/3 122/2/3 131/2/3
f 145/4/3 131/4/3 144/4/3
f 146/3/3 138/3/3 122/3/3
f 146/2/3 122/2/3 145/2/3
f 146/3/3 140/3/3 139/3/3
f 146/3/3 139/3/3 138/3/3
f 147/3/3 140/3/3 146/3/3
f 148/3/3 140/3/3 147/3/3
f 149/1/3 141/1/3 140/1/3
f 149/3/3 140/3/3 148/3/3
f 150/1/3 141/1/3 149/1/3
f 151/1/3 145/1/3 144/1/3
f 152/2/3 146/2/3 145/2/3
f 152/1/3 145/1/3 151/1/3
f 152/2/3 147/2/3 146/2/3
f 153/2/3 147/2/3 152/2/3
f 154/3/3 148/3/3 147/3/3
f 155/1/3 149/1/3 148/1/3
f 155/3/3 148/3/3 154/3/3
f 156/1/3 149/1/3 155/1/3
f 157/1/3 153/1/3 152/1/3
f 158/2/3 147/2/3 153/2/3
f 158/1/3 153/1/3 157/1/3
f 159/3/3 154/3/3 147/3/3
f 159/2/3 147/2/3 158/2/3
f 160/1/3 155/1/3 154/1/3
f 160/3/3 154/3/3 159/3/3
f 161/1/3 155/1/3 160/1/3
f 162/1/3 159/1/3 158/1/3
f 162/1/3 160/1/3 159/1/3
f 163/1/3 160/1/3 162/1/3
f 164/1/4 165/1/4 167/1/4
f 167/1/4 165/1/4 168/1/4
f 168/1/4 165/1/4 169/1/4
f 166/1/4 167/1/4 172/1/4
f 167/4/4 168/4/4 173/4/4
f 172/1/4 167/1/4 173/1/4
f 168/2/4 169/2/4 174/2/4
f 173/4/4 168/4/4 174/4/4
f 169/1/4 170/1/4 175/1/4
f 174/2/4 169/2/4 175/2/4
f 175/1/4 170/1/4 176/1/4
f 171/1/4 172/1/4 179/1/4
f 172/4/4 173/4/4 180/4/4
f 179/1/4 172/1/4 180/1/4
f 173/2/4 174/2/4 181/2/4
f 180/4/4 173/4/4 181/4/4
f 174/2/4 175/2/4 181/2/4
f 175/2/4 176/2/4 181/2/4
f 176/1/4 177/1/4 182/1/4
f 181/2/4 176/2/4 182/2/4
f 182/1/4 177/1/4 183/1/4
f 180/2/4 181/2/4 185/2/4
f 181/2/4 182/2/4 185/2/4
f 182/2/4 183/2/4 185/2/4
f 185/2/4 183/2/4 186/2/4
f 183/1/4 184/1/4 187/1/4
f 186/2/4 183/2/4 187/2/4
f 187/1/4 184/1/4 188/1/4
f 178/1/4 179/1/4 191/1/4
f 179/4/4 180/4/4 192/4/4
f 191/1/4 179/1/4 192/1/4
f 180/2/4 185/2/4 193/2/4
f 192/4/4 180/4/4 193/4/4
f 193/2/4 185/2/4 194/2/4
f 185/3/4 186/3/4 195/3/4
f 194/2/4 185/2/4 195/2/4
f 186/2/4 187/2/4 196/2/4
f 195/3/4 186/3/4 196/3/4
f 187/2/4 188/2/4 196/2/4
f 196/2/4 188/2/4 197/2/4
f 188/1/4 189/1/4 198/1/4
f 197/2/4 188/2/4 198/2/4
f 198/1/4 189/1/4 199/1/4
f 193/2/4 194/2/4 201/2/4
f 192/2/4 193/2/4 201/2/4
f 196/3/4 197/3/4 202/3/4
f 201/2/4 194/2/4 202/2/4
f 194/3/4 195/3/4 202/3/4
f 195/3/4 196/3/4 202/3/4
f 197/2/4 198/2/4 203/2/4
f 202/3/4 197/3/4 203/3/4
f 198/2/4 199/2/4 203/2/4
f 203/2/4 199/2/4 204/2/4
f 192/2/4 201/2/4 205/2/4
f 201/3/4 202/3/4 206/3/4
f 205/2/4 201/2/4 206/2/4
f 202/3/4 203/3/4 206/3/4
f 203/3/4 204/3/4 206/3/4
f 204/2/4 199/2/4 207/2/4
f 206/3/4 204/3/4 207/3/4
f 199/1/4 200/1/4 208/1/4
f 207/2/4 199/2/4 208/2/4
f 206/3/4 207/3/4 209/3/4
f 205/3/4 206/3/4 209/3/4
f 207/3/4 208/3/4 209/3/4
f 209/3/4 208/3/4 210/3/4
f 190/1/4 191/1/4 211/1/4
f 191/4/4 192/4/4 212/4/4
f 211/1/4 191/1/4 212/1/4
f 192/2/4 205/2/4 213/2/4
f 212/4/4 192/4/4 213/4/4
f 213/2/4 205/2/4 214/2/4
f 205/3/4 209/3/4 215/3/4
f 209/5/4 210/5/4 216/5/4
f 215/3/4 209/3/4 216/3/4
f 210/3/4 208/3/4 217/3/4
f 216/5/4 210/5/4 217/5/4
f 217/3/4 208/3/4 218/3/4
f 208/1/4 200/1/4 219/1/4
f 218/3/4 208/3/4 219/3/4
f 219/1/4 200/1/4 220/1/4
f 215/5/4 216/5/4 221/5/4
f 205/3/4 215/3/4 221/3/4
f 217/3/4 218/3/4 222/3/4
f 221/5/4 216/5/4 222/5/4
f 216/3/4 217/3/4 222/3/4
f 222/3/4 218/3/4 223/3/4
f 218/1/4 219/1/4 224/1/4
f 223/3/4 218/3/4 224/3/4
f 224/1/4 219/1/4 225/1/4
f 212/1/4 213/1/4 226/1/4
f 213/4/4 214/4/4 227/4/4
f 226/1/4 213/1/4 227/1/4
f 214/2/4 205/2/4 228/2/4
f 227/4/4 214/4/4 228/4/4
f 205/3/4 221/3/4 229/3/4
f 228/2/4 205/2/4 229/2/4
f 222/3/4 223/3/4 229/3/4
f 221/3/4 222/3/4 229/3/4
f 229/3/4 223/3/4 230/3/4
f 230/3/4 223/3/4 231/3/4
f 223/1/4 224/1/4 232/1/4
f 231/3/4 223/3/4 232/3/4
f 232/1/4 224/1/4 233/1/4
f 227/1/4 228/1/4 234/1/4
f 228/2/4 229/2/4 235/2/4
f 234/1/4 228/1/4 235/1/4
f 229/2/4 230/2/4 235/2/4
f 235/2/4 230/2/4 236/2/4
f 230/3/4 231/3/4 237/3/4
f 231/1/4 232/1/4 238/1/4
f 237/3/4 231/3/4 238/3/4
f 238/1/4 232/1/4 239/1/4
f 235/1/4 236/1/4 240/1/4
f 236/2/4 230/2/4 241/2/4
f 240/1/4 236/1/4 241/1/4
f 230/3/4 237/3/4 242/3/4
f 241/2/4 230/2/4 242/2/4
f 237/1/4 238/1/4 243/1/4
f 242/3/4 237/3/4 243/3/4
f 243/1/4 238/1/4 244/1/4
f 241/1/4 242/1/4 245/1/4
f 242/1/4 243/1/4 245/1/4
f 245/1/4 243/1/4 246/1/4
f 249/1/5 248/1/5 247/1/5
f 250/1/5 248/1/5 249/1/5
f 255/1/5 252/1/5 251/1/5
f 256/1/5 252/1/5 255/1/5
f 257/1/5 254/1/5 253/1/5
f 258/1/5 254/1/5 257/1/5
f 263/1/5 260/1/5 259/1/5
f 264/1/5 260/1/5 263/1/5
f 265/1/5 262/1/5 261/1/5
f 266/1/5 262/1/5 265/1/5
f 271/1/5 268/1/5 267/1/5
f 272/1/5 268/1/5 271/1/5
f 273/1/5 270/1/5 269/1/5
f 274/1/5 270/1/5 273/1/5
f 279/1/5 276/1/5 275/1/5
f 280/1/5 276/1/5 279/1/5
f 281/1/5 278/1/5 277/1/5
f 282/1/5 278/1/5 281/1/5
f 283/1/6 284/1/6 287/1/6
f 287/1/6 284/1/6 288/1/6
f 285/1/6 286/1/6 289/1/6
f 289/1/6 286/1/6 290/1/6
f 291/1/6 292/1/6 295/1/6
f 295/1/6 292/1/6 296/1/6
f 293/1/6 294/1/6 297/1/6
f 297/1/6 294/1/6 298/1/6
f 299/1/6 300/1/6 303/1/6
f 303/1/6 300/1/6 304/1/6
f 301/1/6 302/1/6 305/1/6
f 305/1/6 302/1/6 306/1/6
f 307/1/6 308/1/6 311/1/6
f 311/1/6 308/1/6 312/1/6
f 309/1/6 310/1/6 313/1/6
f 313/1/6 310/1/6 314/1/6
f 315/1/6 316/1/6 319/1/6
f 319/1/6 316/1/6 320/1/6
f 317/1/6 318/1/6 321/1/6
f 321/1/6 318/1/6 322/1/6
f 323/1/6 324/1/6 325/1/6
f 325/1/6 324/1/6 326/1/6
