# MagicaVoxel @ Ephtracy

# group
o 

# material
mtllib Fence.mtl
usemtl palette

# normals
vn -1 0 0
vn 1 0 0
vn 0 0 1
vn 0 0 -1
vn 0 -1 0
vn 0 1 0

# texcoords
vt 0.271484 0.5
vt 0.279297 0.5
vt 0.302734 0.5

# verts
v -0.7 0 0.2
v -0.7 0 0.1
v -0.7 0 0
v -0.7 0 -0.1
v -0.7 0 -0.3
v -0.7 0.1 0.2
v -0.7 0.1 0.1
v -0.7 0.1 0
v -0.7 0.1 -0.1
v -0.7 0.1 -0.3
v -0.6 0.1 0.1
v -0.6 0.1 0
v -0.6 0.1 -0.1
v -0.6 0.1 -0.2
v -0.6 0.2 -0.1
v -0.6 0.2 -0.2
v -0.6 0.3 0
v -0.6 0.3 -0.1
v -0.6 0.3 -0.2
v -0.6 0.4 0.1
v -0.6 0.4 -0.2
v -0.6 0.5 0
v -0.6 0.5 -0.1
v -0.6 0.6 0.1
v -0.6 0.6 0
v -0.6 0.6 -0.1
v -0.6 0.6 -0.2
v -0.6 0.7 0.1
v -0.6 0.7 0
v -0.6 0.7 -0.1
v -0.6 0.7 -0.2
v -0.3 0.2 0
v -0.3 0.2 -0.1
v -0.3 0.3 0
v -0.3 0.3 -0.1
v -0.2 0.4 0
v -0.2 0.4 -0.1
v -0.2 0.5 0
v -0.2 0.5 -0.1
v 0 0.2 0
v 0 0.2 -0.1
v 0 0.3 0
v 0 0.3 -0.1
v 0.1 0.4 0
v 0.1 0.4 -0.1
v 0.1 0.5 0
v 0.1 0.5 -0.1
v 0.2 0.2 0
v 0.2 0.2 -0.1
v 0.2 0.3 0
v 0.2 0.3 -0.1
v 0.3 0 0.2
v 0.3 0 0.1
v 0.3 0 -0.2
v 0.3 0 -0.3
v 0.3 0.1 0.2
v 0.3 0.1 0.1
v 0.3 0.1 0
v 0.3 0.1 -0.1
v 0.3 0.1 -0.2
v 0.3 0.1 -0.3
v 0.4 0.1 0.1
v 0.4 0.1 0
v 0.4 0.1 -0.1
v 0.4 0.1 -0.2
v 0.4 0.2 0
v 0.4 0.2 -0.1
v 0.4 0.3 0
v 0.4 0.3 -0.1
v 0.4 0.3 -0.2
v 0.4 0.4 0
v 0.4 0.4 -0.1
v 0.4 0.5 0
v 0.4 0.5 -0.1
v 0.4 0.6 0
v 0.4 0.6 -0.1
v 0.4 0.7 0.1
v 0.4 0.7 0
v 0.4 0.7 -0.1
v 0.4 0.7 -0.2
v -0.4 0.1 0.1
v -0.4 0.1 0
v -0.4 0.1 -0.1
v -0.4 0.1 -0.2
v -0.4 0.2 0
v -0.4 0.2 -0.1
v -0.4 0.3 0
v -0.4 0.3 -0.1
v -0.4 0.4 0.1
v -0.4 0.4 0
v -0.4 0.4 -0.1
v -0.4 0.4 -0.2
v -0.4 0.5 0
v -0.4 0.5 -0.1
v -0.4 0.6 0
v -0.4 0.6 -0.1
v -0.4 0.6 -0.2
v -0.4 0.7 0.1
v -0.4 0.7 -0.2
v -0.3 0 0.2
v -0.3 0 0.1
v -0.3 0 -0.1
v -0.3 0 -0.3
v -0.3 0.1 0.2
v -0.3 0.1 0.1
v -0.3 0.1 0
v -0.3 0.1 -0.1
v -0.3 0.1 -0.3
v -0.2 0.2 0
v -0.2 0.2 -0.1
v -0.2 0.3 0
v -0.2 0.3 -0.1
v -0.1 0.4 0
v -0.1 0.4 -0.1
v -0.1 0.5 0
v -0.1 0.5 -0.1
v 0.1 0.2 0
v 0.1 0.2 -0.1
v 0.1 0.3 0
v 0.1 0.3 -0.1
v 0.2 0.4 0
v 0.2 0.4 -0.1
v 0.2 0.5 0
v 0.2 0.5 -0.1
v 0.3 0.2 0
v 0.3 0.2 -0.1
v 0.3 0.3 0
v 0.3 0.3 -0.1
v 0.6 0.1 0.1
v 0.6 0.1 0
v 0.6 0.1 -0.1
v 0.6 0.1 -0.2
v 0.6 0.2 0.1
v 0.6 0.2 0
v 0.6 0.3 0.1
v 0.6 0.3 0
v 0.6 0.3 -0.1
v 0.6 0.3 -0.2
v 0.6 0.5 0.1
v 0.6 0.5 0
v 0.6 0.5 -0.1
v 0.6 0.5 -0.2
v 0.6 0.6 0
v 0.6 0.6 -0.1
v 0.6 0.7 0.1
v 0.6 0.7 -0.2
v 0.7 0 0.2
v 0.7 0 0.1
v 0.7 0 0
v 0.7 0 -0.1
v 0.7 0 -0.2
v 0.7 0 -0.3
v 0.7 0.1 0.2
v 0.7 0.1 0.1
v 0.7 0.1 0
v 0.7 0.1 -0.1
v 0.7 0.1 -0.2
v 0.7 0.1 -0.3
v -0.7 0 0.2
v -0.7 0.1 0.2
v -0.6 0 0.2
v -0.6 0.1 0.2
v -0.3 0 0.2
v -0.3 0.1 0.2
v 0.3 0 0.2
v 0.3 0.1 0.2
v 0.4 0 0.2
v 0.4 0.1 0.2
v 0.6 0 0.2
v 0.6 0.1 0.2
v 0.7 0 0.2
v 0.7 0.1 0.2
v -0.6 0.1 0.1
v -0.6 0.4 0.1
v -0.6 0.6 0.1
v -0.6 0.7 0.1
v -0.5 0.1 0.1
v -0.5 0.4 0.1
v -0.5 0.6 0.1
v -0.5 0.7 0.1
v -0.4 0.1 0.1
v -0.4 0.4 0.1
v -0.4 0.7 0.1
v 0.4 0.1 0.1
v 0.4 0.7 0.1
v 0.5 0.2 0.1
v 0.5 0.3 0.1
v 0.5 0.5 0.1
v 0.5 0.7 0.1
v 0.6 0.1 0.1
v 0.6 0.2 0.1
v 0.6 0.3 0.1
v 0.6 0.5 0.1
v 0.6 0.7 0.1
v -0.4 0.1 0
v -0.4 0.2 0
v -0.4 0.3 0
v -0.4 0.4 0
v -0.4 0.5 0
v -0.4 0.6 0
v -0.3 0.1 0
v -0.3 0.2 0
v -0.3 0.3 0
v -0.3 0.5 0
v -0.3 0.6 0
v -0.2 0.1 0
v -0.2 0.2 0
v -0.2 0.3 0
v -0.2 0.4 0
v -0.2 0.5 0
v -0.2 0.6 0
v -0.1 0.4 0
v -0.1 0.5 0
v -0.1 0.6 0
v 0 0.1 0
v 0 0.2 0
v 0 0.3 0
v 0.1 0.1 0
v 0.1 0.2 0
v 0.1 0.3 0
v 0.1 0.4 0
v 0.1 0.5 0
v 0.1 0.6 0
v 0.2 0.2 0
v 0.2 0.3 0
v 0.2 0.4 0
v 0.2 0.5 0
v 0.2 0.6 0
v 0.3 0.1 0
v 0.3 0.2 0
v 0.3 0.3 0
v 0.4 0.1 0
v 0.4 0.2 0
v 0.4 0.3 0
v 0.4 0.4 0
v 0.4 0.5 0
v 0.4 0.6 0
v -0.4 0.1 -0.1
v -0.4 0.2 -0.1
v -0.4 0.3 -0.1
v -0.4 0.4 -0.1
v -0.4 0.5 -0.1
v -0.4 0.6 -0.1
v -0.3 0.1 -0.1
v -0.3 0.2 -0.1
v -0.3 0.3 -0.1
v -0.3 0.5 -0.1
v -0.3 0.6 -0.1
v -0.2 0.1 -0.1
v -0.2 0.2 -0.1
v -0.2 0.3 -0.1
v -0.2 0.4 -0.1
v -0.2 0.5 -0.1
v -0.2 0.6 -0.1
v -0.1 0.4 -0.1
v -0.1 0.5 -0.1
v -0.1 0.6 -0.1
v 0 0.1 -0.1
v 0 0.2 -0.1
v 0 0.3 -0.1
v 0.1 0.1 -0.1
v 0.1 0.2 -0.1
v 0.1 0.3 -0.1
v 0.1 0.4 -0.1
v 0.1 0.5 -0.1
v 0.1 0.6 -0.1
v 0.2 0.2 -0.1
v 0.2 0.3 -0.1
v 0.2 0.4 -0.1
v 0.2 0.5 -0.1
v 0.2 0.6 -0.1
v 0.3 0.1 -0.1
v 0.3 0.2 -0.1
v 0.3 0.3 -0.1
v 0.4 0.1 -0.1
v 0.4 0.2 -0.1
v 0.4 0.3 -0.1
v 0.4 0.4 -0.1
v 0.4 0.5 -0.1
v 0.4 0.6 -0.1
v -0.6 0.1 -0.2
v -0.6 0.2 -0.2
v -0.6 0.3 -0.2
v -0.6 0.4 -0.2
v -0.6 0.6 -0.2
v -0.6 0.7 -0.2
v -0.5 0.2 -0.2
v -0.5 0.3 -0.2
v -0.5 0.4 -0.2
v -0.5 0.6 -0.2
v -0.5 0.7 -0.2
v -0.4 0.1 -0.2
v -0.4 0.4 -0.2
v -0.4 0.6 -0.2
v -0.4 0.7 -0.2
v 0.4 0.1 -0.2
v 0.4 0.3 -0.2
v 0.4 0.7 -0.2
v 0.5 0.1 -0.2
v 0.5 0.3 -0.2
v 0.5 0.5 -0.2
v 0.5 0.7 -0.2
v 0.6 0.1 -0.2
v 0.6 0.3 -0.2
v 0.6 0.5 -0.2
v 0.6 0.7 -0.2
v -0.7 0 -0.3
v -0.7 0.1 -0.3
v -0.3 0 -0.3
v -0.3 0.1 -0.3
v 0.3 0 -0.3
v 0.3 0.1 -0.3
v 0.6 0 -0.3
v 0.6 0.1 -0.3
v 0.7 0 -0.3
v 0.7 0.1 -0.3
v -0.7 0 0.2
v -0.6 0 0.2
v -0.3 0 0.2
v 0.3 0 0.2
v 0.4 0 0.2
v 0.6 0 0.2
v 0.7 0 0.2
v -0.7 0 0.1
v -0.6 0 0.1
v -0.4 0 0.1
v -0.3 0 0.1
v 0.3 0 0.1
v 0.4 0 0.1
v 0.6 0 0.1
v 0.7 0 0.1
v -0.7 0 0
v -0.6 0 0
v 0.6 0 0
v 0.7 0 0
v -0.7 0 -0.1
v -0.4 0 -0.1
v -0.3 0 -0.1
v 0.5 0 -0.1
v 0.7 0 -0.1
v 0.3 0 -0.2
v 0.5 0 -0.2
v 0.6 0 -0.2
v 0.7 0 -0.2
v -0.7 0 -0.3
v -0.3 0 -0.3
v 0.3 0 -0.3
v 0.6 0 -0.3
v 0.7 0 -0.3
v -0.3 0.1 0
v -0.2 0.1 0
v 0 0.1 0
v 0.1 0.1 0
v 0.3 0.1 0
v -0.3 0.1 -0.1
v -0.2 0.1 -0.1
v 0 0.1 -0.1
v 0.1 0.1 -0.1
v 0.3 0.1 -0.1
v -0.4 0.3 0
v -0.3 0.3 0
v -0.2 0.3 0
v 0 0.3 0
v 0.1 0.3 0
v 0.2 0.3 0
v 0.3 0.3 0
v 0.4 0.3 0
v -0.4 0.3 -0.1
v -0.3 0.3 -0.1
v -0.2 0.3 -0.1
v 0 0.3 -0.1
v 0.1 0.3 -0.1
v 0.2 0.3 -0.1
v 0.3 0.3 -0.1
v 0.4 0.3 -0.1
v -0.4 0.5 0
v -0.3 0.5 0
v -0.2 0.5 0
v -0.1 0.5 0
v 0.1 0.5 0
v 0.2 0.5 0
v 0.4 0.5 0
v -0.4 0.5 -0.1
v -0.3 0.5 -0.1
v -0.2 0.5 -0.1
v -0.1 0.5 -0.1
v 0.1 0.5 -0.1
v 0.2 0.5 -0.1
v 0.4 0.5 -0.1
v -0.7 0.1 0.2
v -0.6 0.1 0.2
v -0.3 0.1 0.2
v 0.3 0.1 0.2
v 0.4 0.1 0.2
v 0.6 0.1 0.2
v 0.7 0.1 0.2
v -0.7 0.1 0.1
v -0.6 0.1 0.1
v -0.5 0.1 0.1
v -0.4 0.1 0.1
v -0.3 0.1 0.1
v 0.3 0.1 0.1
v 0.4 0.1 0.1
v 0.6 0.1 0.1
v 0.7 0.1 0.1
v -0.7 0.1 0
v -0.6 0.1 0
v -0.4 0.1 0
v -0.3 0.1 0
v 0.3 0.1 0
v 0.4 0.1 0
v 0.6 0.1 0
v 0.7 0.1 0
v -0.7 0.1 -0.1
v -0.6 0.1 -0.1
v -0.4 0.1 -0.1
v -0.3 0.1 -0.1
v 0.3 0.1 -0.1
v 0.4 0.1 -0.1
v 0.6 0.1 -0.1
v 0.7 0.1 -0.1
v -0.6 0.1 -0.2
v -0.4 0.1 -0.2
v 0.3 0.1 -0.2
v 0.4 0.1 -0.2
v 0.5 0.1 -0.2
v 0.6 0.1 -0.2
v 0.7 0.1 -0.2
v -0.7 0.1 -0.3
v -0.3 0.1 -0.3
v 0.3 0.1 -0.3
v 0.6 0.1 -0.3
v 0.7 0.1 -0.3
v -0.4 0.2 0
v -0.3 0.2 0
v -0.2 0.2 0
v 0 0.2 0
v 0.1 0.2 0
v 0.2 0.2 0
v 0.3 0.2 0
v 0.4 0.2 0
v -0.4 0.2 -0.1
v -0.3 0.2 -0.1
v -0.2 0.2 -0.1
v 0 0.2 -0.1
v 0.1 0.2 -0.1
v 0.2 0.2 -0.1
v 0.3 0.2 -0.1
v 0.4 0.2 -0.1
v -0.4 0.4 0
v -0.2 0.4 0
v -0.1 0.4 0
v 0.1 0.4 0
v 0.2 0.4 0
v 0.4 0.4 0
v -0.4 0.4 -0.1
v -0.2 0.4 -0.1
v -0.1 0.4 -0.1
v 0.1 0.4 -0.1
v 0.2 0.4 -0.1
v 0.4 0.4 -0.1
v -0.4 0.6 0
v -0.3 0.6 0
v -0.2 0.6 0
v -0.1 0.6 0
v 0.1 0.6 0
v 0.2 0.6 0
v 0.4 0.6 0
v -0.4 0.6 -0.1
v -0.3 0.6 -0.1
v -0.2 0.6 -0.1
v -0.1 0.6 -0.1
v 0.1 0.6 -0.1
v 0.2 0.6 -0.1
v 0.4 0.6 -0.1
v -0.6 0.7 0.1
v -0.5 0.7 0.1
v -0.4 0.7 0.1
v 0.4 0.7 0.1
v 0.5 0.7 0.1
v 0.6 0.7 0.1
v -0.6 0.7 0
v -0.5 0.7 0
v 0.4 0.7 0
v 0.5 0.7 0
v -0.6 0.7 -0.1
v -0.5 0.7 -0.1
v 0.4 0.7 -0.1
v 0.5 0.7 -0.1
v -0.6 0.7 -0.2
v -0.5 0.7 -0.2
v -0.4 0.7 -0.2
v 0.4 0.7 -0.2
v 0.5 0.7 -0.2
v 0.6 0.7 -0.2

# faces
f 6/2/1 2/2/1 1/2/1
f 7/1/1 3/1/1 2/1/1
f 7/2/1 2/2/1 6/2/1
f 8/2/1 4/2/1 3/2/1
f 8/1/1 3/1/1 7/1/1
f 9/3/1 5/3/1 4/3/1
f 9/2/1 4/2/1 8/2/1
f 10/3/1 5/3/1 9/3/1
f 15/2/1 13/2/1 12/2/1
f 15/2/1 14/2/1 13/2/1
f 16/2/1 14/2/1 15/2/1
f 17/3/1 12/3/1 11/3/1
f 17/2/1 15/2/1 12/2/1
f 18/1/1 16/1/1 15/1/1
f 18/2/1 15/2/1 17/2/1
f 19/1/1 16/1/1 18/1/1
f 20/3/1 17/3/1 11/3/1
f 20/3/1 18/3/1 17/3/1
f 20/3/1 19/3/1 18/3/1
f 21/3/1 19/3/1 20/3/1
f 22/1/1 21/1/1 20/1/1
f 23/1/1 21/1/1 22/1/1
f 24/1/1 22/1/1 20/1/1
f 25/2/1 23/2/1 22/2/1
f 25/1/1 22/1/1 24/1/1
f 26/1/1 21/1/1 23/1/1
f 26/2/1 23/2/1 25/2/1
f 27/1/1 21/1/1 26/1/1
f 28/2/1 25/2/1 24/2/1
f 29/1/1 26/1/1 25/1/1
f 29/2/1 25/2/1 28/2/1
f 30/2/1 27/2/1 26/2/1
f 30/1/1 26/1/1 29/1/1
f 31/2/1 27/2/1 30/2/1
f 34/2/1 33/2/1 32/2/1
f 35/2/1 33/2/1 34/2/1
f 38/2/1 37/2/1 36/2/1
f 39/2/1 37/2/1 38/2/1
f 42/3/1 41/3/1 40/3/1
f 43/3/1 41/3/1 42/3/1
f 46/1/1 45/1/1 44/1/1
f 47/1/1 45/1/1 46/1/1
f 50/1/1 49/1/1 48/1/1
f 51/1/1 49/1/1 50/1/1
f 56/1/1 53/1/1 52/1/1
f 57/2/1 54/2/1 53/2/1
f 57/1/1 53/1/1 56/1/1
f 58/2/1 54/2/1 57/2/1
f 59/2/1 54/2/1 58/2/1
f 60/3/1 55/3/1 54/3/1
f 60/2/1 54/2/1 59/2/1
f 61/3/1 55/3/1 60/3/1
f 66/2/1 63/2/1 62/2/1
f 67/1/1 65/1/1 64/1/1
f 68/2/1 66/2/1 62/2/1
f 68/1/1 67/1/1 66/1/1
f 69/1/1 65/1/1 67/1/1
f 69/1/1 67/1/1 68/1/1
f 70/1/1 65/1/1 69/1/1
f 71/2/1 68/2/1 62/2/1
f 72/2/1 70/2/1 69/2/1
f 73/2/1 71/2/1 62/2/1
f 73/2/1 72/2/1 71/2/1
f 74/2/1 70/2/1 72/2/1
f 74/2/1 72/2/1 73/2/1
f 75/2/1 73/2/1 62/2/1
f 76/2/1 70/2/1 74/2/1
f 77/2/1 75/2/1 62/2/1
f 78/1/1 76/1/1 75/1/1
f 78/2/1 75/2/1 77/2/1
f 79/2/1 70/2/1 76/2/1
f 79/1/1 76/1/1 78/1/1
f 80/2/1 70/2/1 79/2/1
f 81/2/2 82/2/2 85/2/2
f 83/2/2 84/2/2 86/2/2
f 81/2/2 85/2/2 87/2/2
f 85/2/2 86/2/2 87/2/2
f 86/2/2 84/2/2 88/2/2
f 87/2/2 86/2/2 88/2/2
f 81/2/2 87/2/2 89/2/2
f 89/2/2 87/2/2 90/2/2
f 88/2/2 84/2/2 91/2/2
f 91/2/2 84/2/2 92/2/2
f 89/3/2 90/3/2 93/3/2
f 90/1/2 91/1/2 93/1/2
f 91/1/2 92/1/2 93/1/2
f 93/1/2 92/1/2 94/1/2
f 89/3/2 93/3/2 95/3/2
f 94/1/2 92/1/2 96/1/2
f 96/1/2 92/1/2 97/1/2
f 89/3/2 95/3/2 98/3/2
f 95/3/2 96/3/2 98/3/2
f 96/3/2 97/3/2 98/3/2
f 98/3/2 97/3/2 99/3/2
f 100/3/2 101/3/2 104/3/2
f 101/1/2 102/1/2 105/1/2
f 104/3/2 101/3/2 105/3/2
f 105/1/2 102/1/2 106/1/2
f 102/3/2 103/3/2 107/3/2
f 106/1/2 102/1/2 107/1/2
f 107/3/2 103/3/2 108/3/2
f 109/2/2 110/2/2 111/2/2
f 111/2/2 110/2/2 112/2/2
f 113/2/2 114/2/2 115/2/2
f 115/2/2 114/2/2 116/2/2
f 117/3/2 118/3/2 119/3/2
f 119/3/2 118/3/2 120/3/2
f 121/1/2 122/1/2 123/1/2
f 123/1/2 122/1/2 124/1/2
f 125/1/2 126/1/2 127/1/2
f 127/1/2 126/1/2 128/1/2
f 129/2/2 130/2/2 133/2/2
f 130/1/2 131/1/2 134/1/2
f 133/2/2 130/2/2 134/2/2
f 133/1/2 134/1/2 135/1/2
f 134/1/2 131/1/2 136/1/2
f 135/1/2 134/1/2 136/1/2
f 131/3/2 132/3/2 137/3/2
f 136/1/2 131/1/2 137/1/2
f 137/3/2 132/3/2 138/3/2
f 135/3/2 136/3/2 139/3/2
f 136/1/2 137/1/2 140/1/2
f 139/3/2 136/3/2 140/3/2
f 137/2/2 138/2/2 141/2/2
f 140/1/2 137/1/2 141/1/2
f 141/2/2 138/2/2 142/2/2
f 139/1/2 140/1/2 143/1/2
f 140/2/2 141/2/2 143/2/2
f 141/1/2 142/1/2 144/1/2
f 143/2/2 141/2/2 144/2/2
f 139/1/2 143/1/2 145/1/2
f 143/1/2 144/1/2 145/1/2
f 144/1/2 142/1/2 146/1/2
f 145/1/2 144/1/2 146/1/2
f 147/2/2 148/2/2 153/2/2
f 148/1/2 149/1/2 154/1/2
f 153/2/2 148/2/2 154/2/2
f 149/2/2 150/2/2 155/2/2
f 154/1/2 149/1/2 155/1/2
f 150/3/2 151/3/2 156/3/2
f 155/2/2 150/2/2 156/2/2
f 151/1/2 152/1/2 157/1/2
f 156/3/2 151/3/2 157/3/2
f 157/1/2 152/1/2 158/1/2
f 161/2/3 160/2/3 159/2/3
f 162/2/3 160/2/3 161/2/3
f 163/3/3 162/3/3 161/3/3
f 164/3/3 162/3/3 163/3/3
f 167/1/3 166/1/3 165/1/3
f 168/1/3 166/1/3 167/1/3
f 169/3/3 168/3/3 167/3/3
f 170/3/3 168/3/3 169/3/3
f 171/2/3 170/2/3 169/2/3
f 172/2/3 170/2/3 171/2/3
f 177/3/3 174/3/3 173/3/3
f 178/1/3 175/1/3 174/1/3
f 178/3/3 174/3/3 177/3/3
f 179/2/3 176/2/3 175/2/3
f 179/1/3 175/1/3 178/1/3
f 180/2/3 176/2/3 179/2/3
f 181/2/3 178/2/3 177/2/3
f 182/3/3 179/3/3 178/3/3
f 182/2/3 178/2/3 181/2/3
f 182/3/3 180/3/3 179/3/3
f 183/3/3 180/3/3 182/3/3
f 186/2/3 185/2/3 184/2/3
f 187/2/3 185/2/3 186/2/3
f 188/2/3 185/2/3 187/2/3
f 189/2/3 185/2/3 188/2/3
f 190/2/3 186/2/3 184/2/3
f 191/1/3 187/1/3 186/1/3
f 191/2/3 186/2/3 190/2/3
f 192/3/3 188/3/3 187/3/3
f 192/1/3 187/1/3 191/1/3
f 193/1/3 189/1/3 188/1/3
f 193/3/3 188/3/3 192/3/3
f 194/1/3 189/1/3 193/1/3
f 201/1/3 196/1/3 195/1/3
f 202/1/3 196/1/3 201/1/3
f 203/2/3 198/2/3 197/2/3
f 204/1/3 200/1/3 199/1/3
f 205/1/3 200/1/3 204/1/3
f 206/1/3 202/1/3 201/1/3
f 207/2/3 203/2/3 202/2/3
f 207/1/3 202/1/3 206/1/3
f 208/2/3 198/2/3 203/2/3
f 208/2/3 203/2/3 207/2/3
f 209/2/3 198/2/3 208/2/3
f 210/2/3 205/2/3 204/2/3
f 211/2/3 205/2/3 210/2/3
f 212/3/3 209/3/3 208/3/3
f 212/2/3 210/2/3 209/2/3
f 213/1/3 211/1/3 210/1/3
f 213/2/3 210/2/3 212/2/3
f 214/1/3 211/1/3 213/1/3
f 215/2/3 207/2/3 206/2/3
f 216/2/3 207/2/3 215/2/3
f 217/3/3 212/3/3 208/3/3
f 218/3/3 216/3/3 215/3/3
f 218/3/3 217/3/3 216/3/3
f 219/3/3 217/3/3 218/3/3
f 220/3/3 212/3/3 217/3/3
f 220/3/3 217/3/3 219/3/3
f 221/3/3 212/3/3 220/3/3
f 222/2/3 214/2/3 213/2/3
f 223/2/3 214/2/3 222/2/3
f 224/2/3 219/2/3 218/2/3
f 225/1/3 221/1/3 220/1/3
f 225/1/3 223/1/3 222/1/3
f 225/1/3 222/1/3 221/1/3
f 226/1/3 223/1/3 225/1/3
f 227/1/3 223/1/3 226/1/3
f 228/1/3 223/1/3 227/1/3
f 229/2/3 224/2/3 218/2/3
f 230/1/3 225/1/3 224/1/3
f 230/2/3 224/2/3 229/2/3
f 231/3/3 226/3/3 225/3/3
f 231/1/3 225/1/3 230/1/3
f 232/2/3 230/2/3 229/2/3
f 233/2/3 230/2/3 232/2/3
f 234/3/3 226/3/3 231/3/3
f 235/3/3 226/3/3 234/3/3
f 236/3/3 228/3/3 227/3/3
f 237/3/3 228/3/3 236/3/3
f 238/1/4 239/1/4 244/1/4
f 244/1/4 239/1/4 245/1/4
f 240/2/4 241/2/4 246/2/4
f 242/1/4 243/1/4 247/1/4
f 247/1/4 243/1/4 248/1/4
f 244/1/4 245/1/4 249/1/4
f 245/2/4 246/2/4 250/2/4
f 249/1/4 245/1/4 250/1/4
f 246/2/4 241/2/4 251/2/4
f 250/2/4 246/2/4 251/2/4
f 251/2/4 241/2/4 252/2/4
f 247/2/4 248/2/4 253/2/4
f 253/2/4 248/2/4 254/2/4
f 251/3/4 252/3/4 255/3/4
f 252/2/4 253/2/4 255/2/4
f 253/1/4 254/1/4 256/1/4
f 255/2/4 253/2/4 256/2/4
f 256/1/4 254/1/4 257/1/4
f 249/2/4 250/2/4 258/2/4
f 258/2/4 250/2/4 259/2/4
f 251/3/4 255/3/4 260/3/4
f 258/3/4 259/3/4 261/3/4
f 259/3/4 260/3/4 261/3/4
f 261/3/4 260/3/4 262/3/4
f 260/3/4 255/3/4 263/3/4
f 262/3/4 260/3/4 263/3/4
f 263/3/4 255/3/4 264/3/4
f 256/2/4 257/2/4 265/2/4
f 265/2/4 257/2/4 266/2/4
f 261/2/4 262/2/4 267/2/4
f 263/1/4 264/1/4 268/1/4
f 265/1/4 266/1/4 268/1/4
f 264/1/4 265/1/4 268/1/4
f 268/1/4 266/1/4 269/1/4
f 269/1/4 266/1/4 270/1/4
f 270/1/4 266/1/4 271/1/4
f 261/2/4 267/2/4 272/2/4
f 267/1/4 268/1/4 273/1/4
f 272/2/4 267/2/4 273/2/4
f 268/3/4 269/3/4 274/3/4
f 273/1/4 268/1/4 274/1/4
f 272/2/4 273/2/4 275/2/4
f 275/2/4 273/2/4 276/2/4
f 274/3/4 269/3/4 277/3/4
f 277/3/4 269/3/4 278/3/4
f 270/3/4 271/3/4 279/3/4
f 279/3/4 271/3/4 280/3/4
f 281/2/4 282/2/4 287/2/4
f 282/1/4 283/1/4 287/1/4
f 283/3/4 284/3/4 288/3/4
f 287/1/4 283/1/4 288/1/4
f 284/1/4 285/1/4 289/1/4
f 288/3/4 284/3/4 289/3/4
f 285/2/4 286/2/4 290/2/4
f 289/1/4 285/1/4 290/1/4
f 290/2/4 286/2/4 291/2/4
f 288/2/4 289/2/4 292/2/4
f 287/2/4 288/2/4 292/2/4
f 281/2/4 287/2/4 292/2/4
f 289/1/4 290/1/4 293/1/4
f 292/2/4 289/2/4 293/2/4
f 290/3/4 291/3/4 294/3/4
f 293/1/4 290/1/4 294/1/4
f 294/3/4 291/3/4 295/3/4
f 296/1/4 297/1/4 299/1/4
f 297/2/4 298/2/4 300/2/4
f 299/1/4 297/1/4 300/1/4
f 300/2/4 298/2/4 301/2/4
f 301/2/4 298/2/4 302/2/4
f 299/3/4 300/3/4 303/3/4
f 300/2/4 301/2/4 304/2/4
f 303/3/4 300/3/4 304/3/4
f 301/1/4 302/1/4 305/1/4
f 304/2/4 301/2/4 305/2/4
f 305/1/4 302/1/4 306/1/4
f 307/3/4 308/3/4 309/3/4
f 309/3/4 308/3/4 310/3/4
f 311/3/4 312/3/4 313/3/4
f 313/3/4 312/3/4 314/3/4
f 313/1/4 314/1/4 315/1/4
f 315/1/4 314/1/4 316/1/4
f 324/2/5 318/2/5 317/2/5
f 325/3/5 319/3/5 318/3/5
f 325/2/5 318/2/5 324/2/5
f 326/3/5 319/3/5 325/3/5
f 327/3/5 319/3/5 326/3/5
f 328/1/5 321/1/5 320/1/5
f 329/3/5 322/3/5 321/3/5
f 329/1/5 321/1/5 328/1/5
f 330/2/5 323/2/5 322/2/5
f 330/3/5 322/3/5 329/3/5
f 331/2/5 323/2/5 330/2/5
f 332/1/5 325/1/5 324/1/5
f 333/2/5 326/2/5 325/2/5
f 333/1/5 325/1/5 332/1/5
f 334/2/5 329/2/5 328/2/5
f 334/2/5 330/2/5 329/2/5
f 334/1/5 331/1/5 330/1/5
f 335/1/5 331/1/5 334/1/5
f 336/2/5 333/2/5 332/2/5
f 337/2/5 326/2/5 333/2/5
f 337/2/5 333/2/5 336/2/5
f 337/1/5 327/1/5 326/1/5
f 338/1/5 327/1/5 337/1/5
f 339/2/5 335/2/5 334/2/5
f 339/2/5 334/2/5 328/2/5
f 340/2/5 335/2/5 339/2/5
f 341/2/5 339/2/5 328/2/5
f 342/3/5 340/3/5 339/3/5
f 342/2/5 339/2/5 341/2/5
f 343/3/5 340/3/5 342/3/5
f 344/3/5 340/3/5 343/3/5
f 345/3/5 338/3/5 337/3/5
f 345/3/5 337/3/5 336/3/5
f 346/3/5 338/3/5 345/3/5
f 347/3/5 342/3/5 341/3/5
f 347/3/5 343/3/5 342/3/5
f 348/1/5 344/1/5 343/1/5
f 348/3/5 343/3/5 347/3/5
f 349/1/5 344/1/5 348/1/5
f 355/1/5 351/1/5 350/1/5
f 356/2/5 352/2/5 351/2/5
f 356/1/5 351/1/5 355/1/5
f 357/3/5 353/3/5 352/3/5
f 357/2/5 352/2/5 356/2/5
f 358/2/5 354/2/5 353/2/5
f 358/3/5 353/3/5 357/3/5
f 359/2/5 354/2/5 358/2/5
f 368/2/5 361/2/5 360/2/5
f 369/2/5 361/2/5 368/2/5
f 370/3/5 363/3/5 362/3/5
f 371/3/5 363/3/5 370/3/5
f 372/1/5 365/1/5 364/1/5
f 373/1/5 365/1/5 372/1/5
f 374/3/5 367/3/5 366/3/5
f 375/3/5 367/3/5 374/3/5
f 383/1/5 377/1/5 376/1/5
f 384/2/5 378/2/5 377/2/5
f 384/1/5 377/1/5 383/1/5
f 385/2/5 378/2/5 384/2/5
f 386/2/5 380/2/5 379/2/5
f 387/2/5 380/2/5 386/2/5
f 388/3/5 382/3/5 381/3/5
f 389/3/5 382/3/5 388/3/5
f 390/2/6 391/2/6 397/2/6
f 391/3/6 392/3/6 398/3/6
f 397/2/6 391/2/6 398/2/6
f 398/3/6 392/3/6 399/3/6
f 399/3/6 392/3/6 400/3/6
f 400/3/6 392/3/6 401/3/6
f 393/1/6 394/1/6 402/1/6
f 394/3/6 395/3/6 403/3/6
f 402/1/6 394/1/6 403/1/6
f 395/2/6 396/2/6 404/2/6
f 403/3/6 395/3/6 404/3/6
f 404/2/6 396/2/6 405/2/6
f 397/1/6 398/1/6 406/1/6
f 406/1/6 398/1/6 407/1/6
f 400/1/6 401/1/6 408/1/6
f 408/1/6 401/1/6 409/1/6
f 402/2/6 403/2/6 410/2/6
f 410/2/6 403/2/6 411/2/6
f 404/1/6 405/1/6 412/1/6
f 412/1/6 405/1/6 413/1/6
f 406/2/6 407/2/6 414/2/6
f 414/2/6 407/2/6 415/2/6
f 412/2/6 413/2/6 420/2/6
f 420/2/6 413/2/6 421/2/6
f 414/3/6 415/3/6 422/3/6
f 416/3/6 417/3/6 423/3/6
f 418/2/6 419/2/6 424/2/6
f 424/2/6 419/2/6 425/2/6
f 420/3/6 421/3/6 427/3/6
f 427/3/6 421/3/6 428/3/6
f 422/3/6 423/3/6 429/3/6
f 414/3/6 422/3/6 429/3/6
f 423/3/6 417/3/6 430/3/6
f 429/3/6 423/3/6 430/3/6
f 425/3/6 426/3/6 431/3/6
f 424/3/6 425/3/6 431/3/6
f 426/3/6 427/3/6 431/3/6
f 427/1/6 428/1/6 432/1/6
f 431/3/6 427/3/6 432/3/6
f 432/1/6 428/1/6 433/1/6
f 434/1/6 435/1/6 442/1/6
f 442/1/6 435/1/6 443/1/6
f 436/2/6 437/2/6 444/2/6
f 444/2/6 437/2/6 445/2/6
f 438/2/6 439/2/6 446/2/6
f 446/2/6 439/2/6 447/2/6
f 440/2/6 441/2/6 448/2/6
f 448/2/6 441/2/6 449/2/6
f 450/2/6 451/2/6 456/2/6
f 456/2/6 451/2/6 457/2/6
f 452/3/6 453/3/6 458/3/6
f 458/3/6 453/3/6 459/3/6
f 454/3/6 455/3/6 460/3/6
f 460/3/6 455/3/6 461/3/6
f 462/1/6 463/1/6 469/1/6
f 463/2/6 464/2/6 470/2/6
f 469/1/6 463/1/6 470/1/6
f 464/1/6 465/1/6 471/1/6
f 470/2/6 464/2/6 471/2/6
f 465/2/6 466/2/6 472/2/6
f 471/1/6 465/1/6 472/1/6
f 466/1/6 467/1/6 473/1/6
f 472/2/6 466/2/6 473/2/6
f 467/3/6 468/3/6 474/3/6
f 473/1/6 467/1/6 474/1/6
f 474/3/6 468/3/6 475/3/6
f 476/2/6 477/2/6 482/2/6
f 477/3/6 478/3/6 483/3/6
f 482/2/6 477/2/6 483/2/6
f 479/2/6 480/2/6 484/2/6
f 480/1/6 481/1/6 485/1/6
f 484/2/6 480/2/6 485/2/6
f 482/1/6 483/1/6 486/1/6
f 483/3/6 478/3/6 487/3/6
f 486/1/6 483/1/6 487/1/6
f 484/1/6 485/1/6 488/1/6
f 485/1/6 481/1/6 489/1/6
f 488/1/6 485/1/6 489/1/6
f 486/2/6 487/2/6 490/2/6
f 487/3/6 478/3/6 491/3/6
f 490/2/6 487/2/6 491/2/6
f 491/3/6 478/3/6 492/3/6
f 488/2/6 489/2/6 493/2/6
f 489/1/6 481/1/6 494/1/6
f 493/2/6 489/2/6 494/2/6
f 494/1/6 481/1/6 495/1/6
