# MagicaVoxel @ Ephtracy

# group
o 

# material
mtllib chicken-0.mtl
usemtl palette

# normals
vn -1 0 0
vn 1 0 0
vn 0 0 1
vn 0 0 -1
vn 0 -1 0
vn 0 1 0

# texcoords
vt 0.173828 0.5
vt 0.482422 0.5
vt 0.958984 0.5
vt 0.986328 0.5

# verts
v -0.5 1.6 0.1
v -0.5 1.6 -0.1
v -0.5 1.7 0.1
v -0.5 1.7 -0.1
v -0.4 1.5 0.2
v -0.4 1.5 -0.2
v -0.4 1.6 0.1
v -0.4 1.6 -0.1
v -0.4 1.7 0.1
v -0.4 1.7 -0.1
v -0.4 1.9 0.2
v -0.4 1.9 0.1
v -0.4 1.9 -0.1
v -0.4 1.9 -0.2
v -0.4 2 0.1
v -0.4 2 -0.1
v -0.1 1.5 0.2
v -0.1 1.5 -0.2
v -0.1 1.9 0.2
v -0.1 1.9 0.1
v -0.1 1.9 -0.1
v -0.1 1.9 -0.2
v -0.1 2 0.1
v -0.1 2 -0.1
v -0.4 1.5 0.2
v -0.4 1.9 0.2
v -0.3 1.7 0.2
v -0.3 1.8 0.2
v -0.2 1.7 0.2
v -0.2 1.8 0.2
v -0.1 1.5 0.2
v -0.1 1.9 0.2
v -0.5 1.6 0.1
v -0.5 1.7 0.1
v -0.4 1.6 0.1
v -0.4 1.7 0.1
v -0.4 1.9 0.1
v -0.4 2 0.1
v -0.1 1.9 0.1
v -0.1 2 0.1
v -0.5 1.6 -0.1
v -0.5 1.7 -0.1
v -0.4 1.6 -0.1
v -0.4 1.7 -0.1
v -0.4 1.9 -0.1
v -0.4 2 -0.1
v -0.1 1.9 -0.1
v -0.1 2 -0.1
v -0.4 1.5 -0.2
v -0.4 1.9 -0.2
v -0.3 1.7 -0.2
v -0.3 1.8 -0.2
v -0.2 1.7 -0.2
v -0.2 1.8 -0.2
v -0.1 1.5 -0.2
v -0.1 1.9 -0.2
v -0.4 1.5 0.2
v -0.1 1.5 0.2
v -0.4 1.5 -0.2
v -0.1 1.5 -0.2
v -0.5 1.6 0.1
v -0.4 1.6 0.1
v -0.5 1.6 -0.1
v -0.4 1.6 -0.1
v -0.5 1.7 0.1
v -0.4 1.7 0.1
v -0.5 1.7 -0.1
v -0.4 1.7 -0.1
v -0.4 1.9 0.2
v -0.1 1.9 0.2
v -0.4 1.9 0.1
v -0.1 1.9 0.1
v -0.4 1.9 -0.1
v -0.1 1.9 -0.1
v -0.4 1.9 -0.2
v -0.1 1.9 -0.2
v -0.4 2 0.1
v -0.1 2 0.1
v -0.4 2 -0.1
v -0.1 2 -0.1

# faces
f 3/2/1 2/2/1 1/2/1
f 4/2/1 2/2/1 3/2/1
f 7/3/1 6/3/1 5/3/1
f 8/3/1 6/3/1 7/3/1
f 9/3/1 7/3/1 5/3/1
f 10/3/1 6/3/1 8/3/1
f 11/3/1 9/3/1 5/3/1
f 11/3/1 10/3/1 9/3/1
f 12/3/1 10/3/1 11/3/1
f 13/3/1 6/3/1 10/3/1
f 13/3/1 10/3/1 12/3/1
f 14/3/1 6/3/1 13/3/1
f 15/1/1 13/1/1 12/1/1
f 16/1/1 13/1/1 15/1/1
f 17/3/2 18/3/2 19/3/2
f 19/3/2 18/3/2 20/3/2
f 20/3/2 18/3/2 21/3/2
f 21/3/2 18/3/2 22/3/2
f 20/1/2 21/1/2 23/1/2
f 23/1/2 21/1/2 24/1/2
f 27/3/3 26/3/3 25/3/3
f 28/3/3 26/3/3 27/3/3
f 29/3/3 27/3/3 25/3/3
f 29/4/3 28/4/3 27/4/3
f 30/3/3 26/3/3 28/3/3
f 30/4/3 28/4/3 29/4/3
f 31/3/3 29/3/3 25/3/3
f 31/3/3 30/3/3 29/3/3
f 32/3/3 26/3/3 30/3/3
f 32/3/3 30/3/3 31/3/3
f 35/2/3 34/2/3 33/2/3
f 36/2/3 34/2/3 35/2/3
f 39/1/3 38/1/3 37/1/3
f 40/1/3 38/1/3 39/1/3
f 41/2/4 42/2/4 43/2/4
f 43/2/4 42/2/4 44/2/4
f 45/1/4 46/1/4 47/1/4
f 47/1/4 46/1/4 48/1/4
f 49/3/4 50/3/4 51/3/4
f 51/3/4 50/3/4 52/3/4
f 49/3/4 51/3/4 53/3/4
f 51/4/4 52/4/4 53/4/4
f 52/3/4 50/3/4 54/3/4
f 53/4/4 52/4/4 54/4/4
f 49/3/4 53/3/4 55/3/4
f 53/3/4 54/3/4 55/3/4
f 54/3/4 50/3/4 56/3/4
f 55/3/4 54/3/4 56/3/4
f 59/3/5 58/3/5 57/3/5
f 60/3/5 58/3/5 59/3/5
f 63/2/5 62/2/5 61/2/5
f 64/2/5 62/2/5 63/2/5
f 65/2/6 66/2/6 67/2/6
f 67/2/6 66/2/6 68/2/6
f 69/3/6 70/3/6 71/3/6
f 71/3/6 70/3/6 72/3/6
f 73/3/6 74/3/6 75/3/6
f 75/3/6 74/3/6 76/3/6
f 77/1/6 78/1/6 79/1/6
f 79/1/6 78/1/6 80/1/6
