# MagicaVoxel @ Ephtracy

# group
o 

# material
mtllib Stone-4.mtl
usemtl palette

# normals
vn -1 0 0
vn 1 0 0
vn 0 0 1
vn 0 0 -1
vn 0 -1 0
vn 0 1 0

# texcoords
vt 0.923828 0.5
vt 0.927734 0.5
vt 0.931641 0.5
vt 0.935547 0.5
vt 0.974609 0.5

# verts
v -0.3 0.1 0.4
v -0.3 0.1 0.2
v -0.3 0.3 0.4
v -0.3 0.3 0.2
v -0.2 0.1 0.5
v -0.2 0.1 0.4
v -0.2 0.1 0.2
v -0.2 0.1 0.1
v -0.2 0.2 0.2
v -0.2 0.2 0.1
v -0.2 0.3 0.5
v -0.2 0.3 0.4
v -0.2 0.3 0.3
v -0.2 0.3 0.2
v -0.2 0.3 0.1
v -0.2 0.4 0.4
v -0.2 0.4 0.3
v -0.2 0.4 0.2
v -0.1 0 0.5
v -0.1 0 0.2
v -0.1 0.1 0.6
v -0.1 0.1 0.5
v -0.1 0.1 0.2
v -0.1 0.1 0.1
v -0.1 0.1 0
v -0.1 0.2 0.1
v -0.1 0.2 0
v -0.1 0.3 0.6
v -0.1 0.3 0.5
v -0.1 0.3 0.4
v -0.1 0.3 0.2
v -0.1 0.3 0.1
v -0.1 0.3 0
v -0.1 0.4 0.5
v -0.1 0.4 0.4
v -0.1 0.4 0.3
v -0.1 0.4 0.2
v -0.1 0.4 0.1
v -0.1 0.5 0.4
v -0.1 0.5 0.2
v 2.98023e-08 0 0.2
v 2.98023e-08 0 0.1
v 2.98023e-08 0.1 0.2
v 2.98023e-08 0.1 0.1
v 2.98023e-08 0.1 0
v 2.98023e-08 0.1 -0.2
v 2.98023e-08 0.2 0
v 2.98023e-08 0.2 -0.1
v 2.98023e-08 0.2 -0.2
v 2.98023e-08 0.3 0.6
v 2.98023e-08 0.3 0.5
v 2.98023e-08 0.3 0.1
v 2.98023e-08 0.3 0
v 2.98023e-08 0.3 -0.1
v 2.98023e-08 0.3 -0.2
v 2.98023e-08 0.4 0.6
v 2.98023e-08 0.4 0.5
v 2.98023e-08 0.4 0.4
v 2.98023e-08 0.4 0.2
v 2.98023e-08 0.4 0.1
v 2.98023e-08 0.4 -0.1
v 2.98023e-08 0.5 0.5
v 2.98023e-08 0.5 0.4
v 2.98023e-08 0.5 0.2
v 2.98023e-08 0.5 0.1
v 0.1 0 0.6
v 0.1 0 0.5
v 0.1 0 0.1
v 0.1 0 -0.1
v 0.1 0.1 0.7
v 0.1 0.1 0.6
v 0.1 0.1 0.5
v 0.1 0.1 0.1
v 0.1 0.1 -0.1
v 0.1 0.1 -0.2
v 0.1 0.1 -0.3
v 0.1 0.2 0.6
v 0.1 0.2 -0.2
v 0.1 0.2 -0.3
v 0.1 0.3 -0.1
v 0.1 0.3 -0.2
v 0.1 0.3 -0.3
v 0.1 0.4 0.7
v 0.1 0.4 0.6
v 0.1 0.4 0.5
v 0.1 0.4 0.1
v 0.1 0.4 -0.1
v 0.1 0.4 -0.2
v 0.1 0.5 0.6
v 0.1 0.5 0.5
v 0.1 0.5 0.1
v 0.1 0.5 -0.1
v 0.2 0 0.1
v 0.2 0 -0.1
v 0.2 0.1 0.1
v 0.2 0.1 -0.1
v 0.2 0.4 0
v 0.2 0.4 -0.1
v 0.2 0.5 0
v 0.2 0.5 -0.1
v 0.3 0.3 0
v 0.3 0.3 -0.2
v 0.3 0.4 0.1
v 0.3 0.4 0
v 0.3 0.4 -0.2
v 0.3 0.5 0.1
v 0.3 0.5 0
v 0.4 0.1 -0.1
v 0.4 0.1 -0.2
v 0.4 0.1 -0.3
v 0.4 0.3 0.7
v 0.4 0.3 0.6
v 0.4 0.3 -0.1
v 0.4 0.3 -0.2
v 0.4 0.3 -0.3
v 0.4 0.4 0.7
v 0.4 0.4 0.6
v 0.4 0.4 0.5
v 0.4 0.5 0.6
v 0.4 0.5 0.5
v 0.5 0 0.6
v 0.5 0 0.1
v 0.5 0.1 0.7
v 0.5 0.1 0.6
v 0.5 0.1 0.1
v 0.5 0.1 0
v 0.5 0.1 -0.1
v 0.5 0.2 0.6
v 0.5 0.3 0.7
v 0.5 0.3 0.6
v 0.5 0.3 0.5
v 0.5 0.3 0.1
v 0.5 0.3 0
v 0.5 0.3 -0.1
v 0.5 0.4 0.6
v 0.5 0.4 0.5
v 0.5 0.4 0.1
v 0.5 0.4 0
v 0.5 0.5 0.5
v 0.5 0.5 0.1
v 0.6 0.1 0.6
v 0.6 0.1 0.5
v 0.6 0.1 0.1
v 0.6 0.1 0
v 0.6 0.2 0.6
v 0.6 0.2 0.5
v 0.6 0.3 0.6
v 0.6 0.3 0.5
v 0.6 0.3 0.3
v 0.6 0.3 0.1
v 0.6 0.3 0
v 0.6 0.4 0.5
v 0.6 0.4 0.1
v 0.7 0.1 0.5
v 0.7 0.1 0.3
v 0.7 0.1 0.1
v 0.7 0.3 0.5
v 0.7 0.3 0.3
v 0.7 0.3 0.1
v 0.1 0.1 0.7
v 0.1 0.4 0.7
v 0.2 0.2 0.7
v 0.2 0.4 0.7
v 0.3 0.2 0.7
v 0.3 0.3 0.7
v 0.4 0.3 0.7
v 0.4 0.4 0.7
v 0.5 0.1 0.7
v 0.5 0.3 0.7
v -0.1 0.1 0.6
v -0.1 0.3 0.6
v 2.98023e-08 0.1 0.6
v 2.98023e-08 0.2 0.6
v 2.98023e-08 0.3 0.6
v 2.98023e-08 0.4 0.6
v 0.1 0 0.6
v 0.1 0.1 0.6
v 0.1 0.2 0.6
v 0.1 0.4 0.6
v 0.1 0.5 0.6
v 0.2 0.4 0.6
v 0.4 0.3 0.6
v 0.4 0.4 0.6
v 0.4 0.5 0.6
v 0.5 0 0.6
v 0.5 0.1 0.6
v 0.5 0.2 0.6
v 0.5 0.3 0.6
v 0.5 0.4 0.6
v 0.6 0.1 0.6
v 0.6 0.2 0.6
v 0.6 0.3 0.6
v -0.2 0.1 0.5
v -0.2 0.3 0.5
v -0.1 0 0.5
v -0.1 0.1 0.5
v -0.1 0.3 0.5
v -0.1 0.4 0.5
v 2.98023e-08 0.1 0.5
v 2.98023e-08 0.3 0.5
v 2.98023e-08 0.4 0.5
v 2.98023e-08 0.5 0.5
v 0.1 0 0.5
v 0.1 0.1 0.5
v 0.1 0.4 0.5
v 0.1 0.5 0.5
v 0.4 0.4 0.5
v 0.4 0.5 0.5
v 0.5 0.3 0.5
v 0.5 0.4 0.5
v 0.5 0.5 0.5
v 0.6 0.1 0.5
v 0.6 0.2 0.5
v 0.6 0.3 0.5
v 0.6 0.4 0.5
v 0.7 0.1 0.5
v 0.7 0.3 0.5
v -0.3 0.1 0.4
v -0.3 0.3 0.4
v -0.2 0.1 0.4
v -0.2 0.3 0.4
v -0.2 0.4 0.4
v -0.1 0.3 0.4
v -0.1 0.4 0.4
v -0.1 0.5 0.4
v 2.98023e-08 0.4 0.4
v 2.98023e-08 0.5 0.4
v -0.3 0.1 0.2
v -0.3 0.3 0.2
v -0.2 0.1 0.2
v -0.2 0.2 0.2
v -0.2 0.3 0.2
v -0.2 0.4 0.2
v -0.1 0 0.2
v -0.1 0.1 0.2
v -0.1 0.3 0.2
v -0.1 0.4 0.2
v -0.1 0.5 0.2
v 2.98023e-08 0 0.2
v 2.98023e-08 0.1 0.2
v 2.98023e-08 0.4 0.2
v 2.98023e-08 0.5 0.2
v -0.2 0.1 0.1
v -0.2 0.2 0.1
v -0.2 0.3 0.1
v -0.1 0.1 0.1
v -0.1 0.2 0.1
v -0.1 0.3 0.1
v -0.1 0.4 0.1
v 2.98023e-08 0 0.1
v 2.98023e-08 0.1 0.1
v 2.98023e-08 0.3 0.1
v 2.98023e-08 0.4 0.1
v 2.98023e-08 0.5 0.1
v 0.1 0 0.1
v 0.1 0.1 0.1
v 0.1 0.4 0.1
v 0.1 0.5 0.1
v 0.2 0 0.1
v 0.2 0.1 0.1
v 0.3 0.4 0.1
v 0.3 0.5 0.1
v 0.4 0.4 0.1
v 0.4 0.5 0.1
v 0.5 0 0.1
v 0.5 0.1 0.1
v 0.5 0.3 0.1
v 0.5 0.4 0.1
v 0.5 0.5 0.1
v 0.6 0.1 0.1
v 0.6 0.3 0.1
v 0.6 0.4 0.1
v 0.7 0.1 0.1
v 0.7 0.3 0.1
v -0.1 0.1 0
v -0.1 0.2 0
v -0.1 0.3 0
v 2.98023e-08 0.1 0
v 2.98023e-08 0.2 0
v 2.98023e-08 0.3 0
v 0.2 0.4 0
v 0.2 0.5 0
v 0.3 0.3 0
v 0.3 0.4 0
v 0.3 0.5 0
v 0.4 0.3 0
v 0.4 0.4 0
v 0.5 0.1 0
v 0.5 0.3 0
v 0.5 0.4 0
v 0.6 0.1 0
v 0.6 0.3 0
v 2.98023e-08 0.3 -0.1
v 2.98023e-08 0.4 -0.1
v 0.1 0 -0.1
v 0.1 0.1 -0.1
v 0.1 0.3 -0.1
v 0.1 0.4 -0.1
v 0.1 0.5 -0.1
v 0.2 0 -0.1
v 0.2 0.1 -0.1
v 0.2 0.4 -0.1
v 0.2 0.5 -0.1
v 0.4 0.1 -0.1
v 0.4 0.3 -0.1
v 0.5 0.1 -0.1
v 0.5 0.3 -0.1
v 2.98023e-08 0.1 -0.2
v 2.98023e-08 0.2 -0.2
v 2.98023e-08 0.3 -0.2
v 0.1 0.1 -0.2
v 0.1 0.2 -0.2
v 0.1 0.3 -0.2
v 0.1 0.4 -0.2
v 0.2 0.3 -0.2
v 0.3 0.3 -0.2
v 0.3 0.4 -0.2
v 0.1 0.1 -0.3
v 0.1 0.2 -0.3
v 0.1 0.3 -0.3
v 0.2 0.2 -0.3
v 0.2 0.3 -0.3
v 0.3 0.1 -0.3
v 0.3 0.3 -0.3
v 0.4 0.1 -0.3
v 0.4 0.3 -0.3
v 0.1 0 0.6
v 0.5 0 0.6
v -0.1 0 0.5
v 0.1 0 0.5
v -0.1 0 0.2
v 2.98023e-08 0 0.2
v 2.98023e-08 0 0.1
v 0.1 0 0.1
v 0.2 0 0.1
v 0.5 0 0.1
v 0.1 0 -0.1
v 0.2 0 -0.1
v 0.1 0.1 0.7
v 0.5 0.1 0.7
v -0.1 0.1 0.6
v 2.98023e-08 0.1 0.6
v 0.1 0.1 0.6
v 0.5 0.1 0.6
v 0.6 0.1 0.6
v -0.2 0.1 0.5
v -0.1 0.1 0.5
v 2.98023e-08 0.1 0.5
v 0.1 0.1 0.5
v 0.6 0.1 0.5
v 0.7 0.1 0.5
v -0.3 0.1 0.4
v -0.2 0.1 0.4
v 0.6 0.1 0.3
v 0.7 0.1 0.3
v -0.3 0.1 0.2
v -0.2 0.1 0.2
v -0.1 0.1 0.2
v 2.98023e-08 0.1 0.2
v -0.2 0.1 0.1
v -0.1 0.1 0.1
v 2.98023e-08 0.1 0.1
v 0.1 0.1 0.1
v 0.2 0.1 0.1
v 0.5 0.1 0.1
v 0.6 0.1 0.1
v 0.7 0.1 0.1
v -0.1 0.1 0
v 2.98023e-08 0.1 0
v 0.5 0.1 0
v 0.6 0.1 0
v 0.1 0.1 -0.1
v 0.2 0.1 -0.1
v 0.4 0.1 -0.1
v 0.5 0.1 -0.1
v 2.98023e-08 0.1 -0.2
v 0.1 0.1 -0.2
v 0.3 0.1 -0.2
v 0.4 0.1 -0.2
v 0.1 0.1 -0.3
v 0.3 0.1 -0.3
v 0.4 0.1 -0.3
v 0.4 0.3 0.7
v 0.5 0.3 0.7
v -0.1 0.3 0.6
v 2.98023e-08 0.3 0.6
v 0.4 0.3 0.6
v 0.5 0.3 0.6
v 0.6 0.3 0.6
v -0.2 0.3 0.5
v -0.1 0.3 0.5
v 2.98023e-08 0.3 0.5
v 0.5 0.3 0.5
v 0.6 0.3 0.5
v 0.7 0.3 0.5
v -0.3 0.3 0.4
v -0.2 0.3 0.4
v -0.1 0.3 0.4
v -0.2 0.3 0.3
v 0.6 0.3 0.3
v 0.7 0.3 0.3
v -0.3 0.3 0.2
v -0.2 0.3 0.2
v -0.1 0.3 0.2
v -0.2 0.3 0.1
v -0.1 0.3 0.1
v 2.98023e-08 0.3 0.1
v 0.5 0.3 0.1
v 0.6 0.3 0.1
v 0.7 0.3 0.1
v -0.1 0.3 0
v 2.98023e-08 0.3 0
v 0.3 0.3 0
v 0.4 0.3 0
v 0.5 0.3 0
v 0.6 0.3 0
v 2.98023e-08 0.3 -0.1
v 0.1 0.3 -0.1
v 0.4 0.3 -0.1
v 0.5 0.3 -0.1
v 2.98023e-08 0.3 -0.2
v 0.1 0.3 -0.2
v 0.2 0.3 -0.2
v 0.3 0.3 -0.2
v 0.4 0.3 -0.2
v 0.1 0.3 -0.3
v 0.2 0.3 -0.3
v 0.3 0.3 -0.3
v 0.4 0.3 -0.3
v 0.1 0.4 0.7
v 0.2 0.4 0.7
v 0.4 0.4 0.7
v 2.98023e-08 0.4 0.6
v 0.1 0.4 0.6
v 0.2 0.4 0.6
v 0.4 0.4 0.6
v 0.5 0.4 0.6
v -0.1 0.4 0.5
v 2.98023e-08 0.4 0.5
v 0.1 0.4 0.5
v 0.4 0.4 0.5
v 0.5 0.4 0.5
v 0.6 0.4 0.5
v -0.2 0.4 0.4
v -0.1 0.4 0.4
v 2.98023e-08 0.4 0.4
v -0.2 0.4 0.3
v -0.1 0.4 0.3
v -0.2 0.4 0.2
v -0.1 0.4 0.2
v 2.98023e-08 0.4 0.2
v -0.1 0.4 0.1
v 2.98023e-08 0.4 0.1
v 0.1 0.4 0.1
v 0.3 0.4 0.1
v 0.4 0.4 0.1
v 0.5 0.4 0.1
v 0.6 0.4 0.1
v 0.2 0.4 0
v 0.3 0.4 0
v 0.4 0.4 0
v 0.5 0.4 0
v 2.98023e-08 0.4 -0.1
v 0.1 0.4 -0.1
v 0.2 0.4 -0.1
v 0.1 0.4 -0.2
v 0.3 0.4 -0.2
v 0.1 0.5 0.6
v 0.4 0.5 0.6
v 2.98023e-08 0.5 0.5
v 0.1 0.5 0.5
v 0.3 0.5 0.5
v 0.4 0.5 0.5
v 0.5 0.5 0.5
v -0.1 0.5 0.4
v 2.98023e-08 0.5 0.4
v 0.1 0.5 0.4
v 0.3 0.5 0.4
v -0.1 0.5 0.2
v 2.98023e-08 0.5 0.2
v 0.3 0.5 0.2
v 0.4 0.5 0.2
v 2.98023e-08 0.5 0.1
v 0.1 0.5 0.1
v 0.3 0.5 0.1
v 0.4 0.5 0.1
v 0.5 0.5 0.1
v 0.2 0.5 0
v 0.3 0.5 0
v 0.1 0.5 -0.1
v 0.2 0.5 -0.1

# faces
f 3/3/1 2/3/1 1/3/1
f 4/3/1 2/3/1 3/3/1
f 9/3/1 8/3/1 7/3/1
f 10/3/1 8/3/1 9/3/1
f 11/3/1 6/3/1 5/3/1
f 12/3/1 6/3/1 11/3/1
f 14/5/1 10/5/1 9/5/1
f 15/5/1 10/5/1 14/5/1
f 16/5/1 13/5/1 12/5/1
f 17/3/1 14/3/1 13/3/1
f 17/5/1 13/5/1 16/5/1
f 18/3/1 14/3/1 17/3/1
f 22/4/1 20/4/1 19/4/1
f 23/4/1 20/4/1 22/4/1
f 26/3/1 25/3/1 24/3/1
f 27/3/1 25/3/1 26/3/1
f 28/3/1 22/3/1 21/3/1
f 29/3/1 22/3/1 28/3/1
f 32/5/1 27/5/1 26/5/1
f 33/5/1 27/5/1 32/5/1
f 34/4/1 30/4/1 29/4/1
f 35/4/1 30/4/1 34/4/1
f 37/3/1 32/3/1 31/3/1
f 38/3/1 32/3/1 37/3/1
f 39/3/1 36/3/1 35/3/1
f 39/3/1 37/3/1 36/3/1
f 40/3/1 37/3/1 39/3/1
f 43/4/1 42/4/1 41/4/1
f 44/4/1 42/4/1 43/4/1
f 47/3/1 46/3/1 45/3/1
f 48/3/1 46/3/1 47/3/1
f 49/3/1 46/3/1 48/3/1
f 53/3/1 48/3/1 47/3/1
f 54/5/1 49/5/1 48/5/1
f 54/3/1 48/3/1 53/3/1
f 55/5/1 49/5/1 54/5/1
f 56/3/1 51/3/1 50/3/1
f 57/3/1 51/3/1 56/3/1
f 60/3/1 53/3/1 52/3/1
f 60/3/1 54/3/1 53/3/1
f 61/3/1 54/3/1 60/3/1
f 62/3/1 58/3/1 57/3/1
f 63/3/1 58/3/1 62/3/1
f 64/3/1 60/3/1 59/3/1
f 65/3/1 60/3/1 64/3/1
f 71/4/1 67/4/1 66/4/1
f 72/4/1 67/4/1 71/4/1
f 73/4/1 69/4/1 68/4/1
f 74/4/1 69/4/1 73/4/1
f 77/3/1 71/3/1 70/3/1
f 78/3/1 76/3/1 75/3/1
f 79/3/1 76/3/1 78/3/1
f 81/5/1 79/5/1 78/5/1
f 82/5/1 79/5/1 81/5/1
f 83/3/1 77/3/1 70/3/1
f 84/3/1 77/3/1 83/3/1
f 87/3/1 81/3/1 80/3/1
f 88/3/1 81/3/1 87/3/1
f 89/3/1 85/3/1 84/3/1
f 90/3/1 85/3/1 89/3/1
f 91/3/1 87/3/1 86/3/1
f 92/3/1 87/3/1 91/3/1
f 93/4/2 94/4/2 95/4/2
f 95/4/2 94/4/2 96/4/2
f 97/3/2 98/3/2 99/3/2
f 99/3/2 98/3/2 100/3/2
f 101/3/2 102/3/2 104/3/2
f 104/3/2 102/3/2 105/3/2
f 103/3/2 104/3/2 106/3/2
f 106/3/2 104/3/2 107/3/2
f 108/3/2 109/3/2 113/3/2
f 109/2/2 110/2/2 114/2/2
f 113/3/2 109/3/2 114/3/2
f 114/2/2 110/2/2 115/2/2
f 111/5/2 112/5/2 116/5/2
f 116/5/2 112/5/2 117/5/2
f 117/3/2 118/3/2 119/3/2
f 119/3/2 118/3/2 120/3/2
f 121/4/2 122/4/2 124/4/2
f 124/4/2 122/4/2 125/4/2
f 123/3/2 124/3/2 128/3/2
f 123/3/2 128/3/2 129/3/2
f 129/3/2 128/3/2 130/3/2
f 126/3/2 127/3/2 133/3/2
f 133/3/2 127/3/2 134/3/2
f 130/3/2 131/3/2 135/3/2
f 135/3/2 131/3/2 136/3/2
f 132/3/2 133/3/2 137/3/2
f 137/3/2 133/3/2 138/3/2
f 136/3/2 137/3/2 139/3/2
f 139/3/2 137/3/2 140/3/2
f 141/4/2 142/4/2 145/4/2
f 145/4/2 142/4/2 146/4/2
f 145/3/2 146/3/2 147/3/2
f 147/3/2 146/3/2 148/3/2
f 143/3/2 144/3/2 150/3/2
f 150/3/2 144/3/2 151/3/2
f 148/3/2 149/3/2 152/3/2
f 149/3/2 150/3/2 152/3/2
f 152/3/2 150/3/2 153/3/2
f 154/3/2 155/3/2 157/3/2
f 155/5/2 156/5/2 158/5/2
f 157/3/2 155/3/2 158/3/2
f 158/5/2 156/5/2 159/5/2
f 162/3/3 161/3/3 160/3/3
f 163/3/3 161/3/3 162/3/3
f 164/3/3 162/3/3 160/3/3
f 164/5/3 163/5/3 162/5/3
f 165/5/3 163/5/3 164/5/3
f 166/3/3 165/3/3 164/3/3
f 166/5/3 163/5/3 165/5/3
f 167/5/3 163/5/3 166/5/3
f 168/3/3 164/3/3 160/3/3
f 168/3/3 166/3/3 164/3/3
f 169/3/3 166/3/3 168/3/3
f 172/3/3 171/3/3 170/3/3
f 173/3/3 171/3/3 172/3/3
f 174/3/3 171/3/3 173/3/3
f 177/4/3 173/4/3 172/4/3
f 178/3/3 175/3/3 174/3/3
f 178/3/3 174/3/3 173/3/3
f 178/4/3 173/4/3 177/4/3
f 179/3/3 175/3/3 178/3/3
f 181/3/3 180/3/3 179/3/3
f 183/3/3 180/3/3 181/3/3
f 184/3/3 180/3/3 183/3/3
f 185/4/3 177/4/3 176/4/3
f 186/4/3 177/4/3 185/4/3
f 188/3/3 183/3/3 182/3/3
f 189/3/3 183/3/3 188/3/3
f 190/4/3 187/4/3 186/4/3
f 191/3/3 188/3/3 187/3/3
f 191/4/3 187/4/3 190/4/3
f 192/3/3 188/3/3 191/3/3
f 196/3/3 194/3/3 193/3/3
f 197/3/3 194/3/3 196/3/3
f 199/4/3 196/4/3 195/4/3
f 200/4/3 198/4/3 197/4/3
f 201/4/3 198/4/3 200/4/3
f 203/4/3 199/4/3 195/4/3
f 204/4/3 199/4/3 203/4/3
f 205/3/3 202/3/3 201/3/3
f 206/3/3 202/3/3 205/3/3
f 210/3/3 208/3/3 207/3/3
f 211/3/3 208/3/3 210/3/3
f 214/3/3 210/3/3 209/3/3
f 215/3/3 210/3/3 214/3/3
f 216/3/3 213/3/3 212/3/3
f 216/3/3 214/3/3 213/3/3
f 217/3/3 214/3/3 216/3/3
f 220/3/3 219/3/3 218/3/3
f 221/3/3 219/3/3 220/3/3
f 223/5/3 222/5/3 221/5/3
f 224/5/3 222/5/3 223/5/3
f 226/3/3 225/3/3 224/3/3
f 227/3/3 225/3/3 226/3/3
f 228/3/4 229/3/4 230/3/4
f 230/3/4 229/3/4 231/3/4
f 231/3/4 229/3/4 232/3/4
f 232/3/4 233/3/4 236/3/4
f 236/3/4 233/3/4 237/3/4
f 234/4/4 235/4/4 239/4/4
f 239/4/4 235/4/4 240/4/4
f 237/3/4 238/3/4 241/3/4
f 241/3/4 238/3/4 242/3/4
f 243/3/4 244/3/4 246/3/4
f 244/5/4 245/5/4 247/5/4
f 246/3/4 244/3/4 247/3/4
f 247/5/4 245/5/4 248/5/4
f 248/3/4 249/3/4 252/3/4
f 252/3/4 249/3/4 253/3/4
f 250/4/4 251/4/4 255/4/4
f 255/4/4 251/4/4 256/4/4
f 253/3/4 254/3/4 257/3/4
f 257/3/4 254/3/4 258/3/4
f 261/1/4 262/1/4 263/1/4
f 263/1/4 262/1/4 264/1/4
f 259/4/4 260/4/4 265/4/4
f 265/4/4 260/4/4 266/4/4
f 263/3/4 264/3/4 268/3/4
f 268/3/4 264/3/4 269/3/4
f 267/3/4 268/3/4 271/3/4
f 271/3/4 268/3/4 272/3/4
f 270/5/4 271/5/4 273/5/4
f 273/5/4 271/5/4 274/5/4
f 275/3/4 276/3/4 278/3/4
f 276/5/4 277/5/4 279/5/4
f 278/3/4 276/3/4 279/3/4
f 279/5/4 277/5/4 280/5/4
f 281/3/4 282/3/4 284/3/4
f 284/3/4 282/3/4 285/3/4
f 283/1/4 284/1/4 286/1/4
f 286/1/4 284/1/4 287/1/4
f 286/3/4 287/3/4 289/3/4
f 289/3/4 287/3/4 290/3/4
f 288/3/4 289/3/4 291/3/4
f 291/3/4 289/3/4 292/3/4
f 293/3/4 294/3/4 297/3/4
f 297/3/4 294/3/4 298/3/4
f 295/4/4 296/4/4 300/4/4
f 300/4/4 296/4/4 301/4/4
f 298/3/4 299/3/4 302/3/4
f 302/3/4 299/3/4 303/3/4
f 304/3/4 305/3/4 306/3/4
f 306/3/4 305/3/4 307/3/4
f 308/3/4 309/3/4 311/3/4
f 309/5/4 310/5/4 312/5/4
f 311/3/4 309/3/4 312/3/4
f 312/5/4 310/5/4 313/5/4
f 313/3/4 314/3/4 315/3/4
f 315/3/4 314/3/4 316/3/4
f 316/3/4 314/3/4 317/3/4
f 318/3/4 319/3/4 321/3/4
f 319/5/4 320/5/4 321/5/4
f 321/5/4 320/5/4 322/5/4
f 318/3/4 321/3/4 323/3/4
f 321/3/4 322/3/4 323/3/4
f 323/3/4 322/3/4 324/3/4
f 323/2/4 324/2/4 325/2/4
f 325/2/4 324/2/4 326/2/4
f 330/4/5 328/4/5 327/4/5
f 331/4/5 330/4/5 329/4/5
f 332/4/5 330/4/5 331/4/5
f 333/4/5 330/4/5 332/4/5
f 334/4/5 328/4/5 330/4/5
f 334/4/5 330/4/5 333/4/5
f 335/4/5 328/4/5 334/4/5
f 336/4/5 328/4/5 335/4/5
f 337/4/5 335/4/5 334/4/5
f 338/4/5 335/4/5 337/4/5
f 343/3/5 340/3/5 339/3/5
f 344/3/5 340/3/5 343/3/5
f 347/3/5 342/3/5 341/3/5
f 348/4/5 343/4/5 342/4/5
f 348/3/5 342/3/5 347/3/5
f 349/4/5 343/4/5 348/4/5
f 350/4/5 345/4/5 344/4/5
f 353/3/5 347/3/5 346/3/5
f 354/3/5 351/3/5 350/3/5
f 354/4/5 350/4/5 344/4/5
f 355/3/5 351/3/5 354/3/5
f 356/3/5 353/3/5 352/3/5
f 357/3/5 347/3/5 353/3/5
f 357/3/5 353/3/5 356/3/5
f 358/3/5 347/3/5 357/3/5
f 360/3/5 359/3/5 358/3/5
f 360/3/5 358/3/5 357/3/5
f 361/3/5 359/3/5 360/3/5
f 362/3/5 359/3/5 361/3/5
f 365/4/5 354/4/5 344/4/5
f 366/5/5 355/5/5 354/5/5
f 366/4/5 354/4/5 365/4/5
f 367/5/5 355/5/5 366/5/5
f 368/3/5 363/3/5 362/3/5
f 368/3/5 362/3/5 361/3/5
f 369/3/5 363/3/5 368/3/5
f 370/3/5 365/3/5 364/3/5
f 370/3/5 366/3/5 365/3/5
f 371/3/5 366/3/5 370/3/5
f 372/3/5 363/3/5 369/3/5
f 373/3/5 370/3/5 364/3/5
f 374/3/5 370/3/5 373/3/5
f 375/3/5 370/3/5 374/3/5
f 376/3/5 372/3/5 369/3/5
f 376/3/5 373/3/5 372/3/5
f 376/3/5 374/3/5 373/3/5
f 377/3/5 374/3/5 376/3/5
f 378/3/5 374/3/5 377/3/5
f 379/3/5 374/3/5 378/3/5
f 380/3/5 378/3/5 377/3/5
f 381/2/5 379/2/5 378/2/5
f 381/3/5 378/3/5 380/3/5
f 382/2/5 379/2/5 381/2/5
f 383/3/6 384/3/6 387/3/6
f 387/3/6 384/3/6 388/3/6
f 385/3/6 386/3/6 391/3/6
f 391/3/6 386/3/6 392/3/6
f 388/3/6 389/3/6 393/3/6
f 393/3/6 389/3/6 394/3/6
f 390/3/6 391/3/6 397/3/6
f 397/3/6 391/3/6 398/3/6
f 396/3/6 397/3/6 399/3/6
f 394/3/6 395/3/6 400/3/6
f 400/3/6 395/3/6 401/3/6
f 396/3/6 399/3/6 402/3/6
f 402/3/6 399/3/6 403/3/6
f 403/5/6 404/5/6 405/5/6
f 405/5/6 404/5/6 406/5/6
f 400/5/6 401/5/6 409/5/6
f 409/5/6 401/5/6 410/5/6
f 406/5/6 407/5/6 411/5/6
f 411/5/6 407/5/6 412/5/6
f 408/3/6 409/3/6 415/3/6
f 415/3/6 409/3/6 416/3/6
f 413/3/6 414/3/6 419/3/6
f 414/3/6 415/3/6 419/3/6
f 419/3/6 415/3/6 420/3/6
f 417/5/6 418/5/6 421/5/6
f 421/5/6 418/5/6 422/5/6
f 413/3/6 419/3/6 424/3/6
f 424/3/6 419/3/6 425/3/6
f 422/5/6 423/5/6 426/5/6
f 423/3/6 424/3/6 427/3/6
f 426/5/6 423/5/6 427/5/6
f 424/2/6 425/2/6 428/2/6
f 427/3/6 424/3/6 428/3/6
f 428/2/6 425/2/6 429/2/6
f 430/3/6 431/3/6 434/3/6
f 431/5/6 432/5/6 435/5/6
f 434/3/6 431/3/6 435/3/6
f 435/5/6 432/5/6 436/5/6
f 433/3/6 434/3/6 439/3/6
f 439/3/6 434/3/6 440/3/6
f 436/3/6 437/3/6 441/3/6
f 441/3/6 437/3/6 442/3/6
f 438/4/6 439/4/6 445/4/6
f 445/4/6 439/4/6 446/4/6
f 444/5/6 445/5/6 447/5/6
f 447/5/6 445/5/6 448/5/6
f 447/3/6 448/3/6 449/3/6
f 449/3/6 448/3/6 450/3/6
f 450/3/6 451/3/6 452/3/6
f 452/3/6 451/3/6 453/3/6
f 442/3/6 443/3/6 457/3/6
f 457/3/6 443/3/6 458/3/6
f 455/1/6 456/1/6 460/1/6
f 456/3/6 457/3/6 461/3/6
f 460/1/6 456/1/6 461/1/6
f 461/3/6 457/3/6 462/3/6
f 453/3/6 454/3/6 463/3/6
f 463/3/6 454/3/6 464/3/6
f 459/3/6 460/3/6 465/3/6
f 464/3/6 465/3/6 466/3/6
f 465/3/6 460/3/6 467/3/6
f 466/3/6 465/3/6 467/3/6
f 468/3/6 469/3/6 471/3/6
f 471/3/6 469/3/6 472/3/6
f 472/3/6 469/3/6 473/3/6
f 470/3/6 471/3/6 476/3/6
f 471/5/6 472/5/6 477/5/6
f 476/3/6 471/3/6 477/3/6
f 473/3/6 474/3/6 478/3/6
f 477/5/6 472/5/6 478/5/6
f 472/3/6 473/3/6 478/3/6
f 476/3/6 477/3/6 479/3/6
f 475/3/6 476/3/6 479/3/6
f 477/3/6 478/3/6 479/3/6
f 479/3/6 478/3/6 480/3/6
f 478/3/6 474/3/6 481/3/6
f 480/3/6 478/3/6 481/3/6
f 481/3/6 474/3/6 482/3/6
f 480/3/6 481/3/6 483/3/6
f 483/3/6 481/3/6 484/3/6
f 481/1/6 482/1/6 485/1/6
f 484/3/6 481/3/6 485/3/6
f 482/3/6 474/3/6 486/3/6
f 485/1/6 482/1/6 486/1/6
f 486/3/6 474/3/6 487/3/6
f 484/3/6 485/3/6 488/3/6
f 488/3/6 485/3/6 489/3/6
f 484/3/6 488/3/6 490/3/6
f 490/3/6 488/3/6 491/3/6
