# MagicaVoxel @ Ephtracy

# group
o 

# material
mtllib chickenParts-0.mtl
usemtl palette

# normals
vn -1 0 0
vn 1 0 0
vn 0 0 1
vn 0 0 -1
vn 0 -1 0
vn 0 1 0

# texcoords
vt 0.0566406 0.5
vt 0.482422 0.5
vt 0.912109 0.5
vt 0.916016 0.5
vt 0.958984 0.5
vt 0.986328 0.5

# verts
v -0.5 1.6 0.1
v -0.5 1.6 -0.1
v -0.5 1.7 0.1
v -0.5 1.7 -0.1
v -0.5 1.9 0.3
v -0.5 1.9 -0.3
v -0.5 2 0.3
v -0.5 2 -0.3
v -0.4 1.5 0.2
v -0.4 1.5 -0.2
v -0.4 1.6 0.1
v -0.4 1.6 -0.1
v -0.4 1.7 0.1
v -0.4 1.7 -0.1
v -0.4 1.9 0.2
v -0.4 1.9 -0.2
v -0.4 2 0.2
v -0.4 2 -0.2
v -0.4 2.1 0.2
v -0.4 2.1 -0.2
v -0.3 2.1 0.1
v -0.3 2.1 -0.1
v -0.3 2.2 0.1
v -0.3 2.2 -0.1
v -0.2 2.1 0.2
v -0.2 2.1 0.1
v -0.2 2.1 -0.1
v -0.2 2.1 -0.2
v -0.2 2.2 0.2
v -0.2 2.2 0.1
v -0.2 2.2 -0.1
v -0.2 2.2 -0.2
v -0.2 2.3 0.1
v -0.2 2.3 -0.1
v -0.1 2.3 0.1
v -0.1 2.3 -0.1
v -0.1 2.4 0.1
v -0.1 2.4 -0.1
v -0.1 1.5 0.2
v -0.1 1.5 -0.2
v -0.1 1.9 0.2
v -0.1 1.9 -0.2
v -0.1 2.1 0.2
v -0.1 2.1 0.1
v -0.1 2.1 -0.1
v -0.1 2.1 -0.2
v -0.1 2.2 0.2
v -0.1 2.2 0.1
v -0.1 2.2 -0.1
v -0.1 2.2 -0.2
v 0 1.9 0.3
v 0 1.9 -0.3
v 0 2 0.3
v 0 2 0.2
v 0 2 -0.2
v 0 2 -0.3
v 0 2.1 0.2
v 0 2.1 0.1
v 0 2.1 -0.1
v 0 2.1 -0.2
v 0 2.2 0.1
v 0 2.2 -0.1
v 0.1 2.2 0.1
v 0.1 2.2 -0.1
v 0.1 2.4 0.1
v 0.1 2.4 -0.1
v -0.5 1.9 0.3
v -0.5 2 0.3
v 0 1.9 0.3
v 0 2 0.3
v -0.4 1.5 0.2
v -0.4 1.9 0.2
v -0.4 2 0.2
v -0.4 2.1 0.2
v -0.3 1.7 0.2
v -0.3 1.8 0.2
v -0.2 1.7 0.2
v -0.2 1.8 0.2
v -0.2 2.1 0.2
v -0.2 2.2 0.2
v -0.1 1.5 0.2
v -0.1 1.9 0.2
v -0.1 2.1 0.2
v -0.1 2.2 0.2
v 0 2 0.2
v 0 2.1 0.2
v -0.5 1.6 0.1
v -0.5 1.7 0.1
v -0.4 1.6 0.1
v -0.4 1.7 0.1
v -0.3 2.1 0.1
v -0.3 2.2 0.1
v -0.2 2.1 0.1
v -0.2 2.2 0.1
v -0.2 2.3 0.1
v -0.1 2.1 0.1
v -0.1 2.2 0.1
v -0.1 2.3 0.1
v -0.1 2.4 0.1
v 0 2.1 0.1
v 0 2.2 0.1
v 0.1 2.2 0.1
v 0.1 2.4 0.1
v -0.5 1.6 -0.1
v -0.5 1.7 -0.1
v -0.4 1.6 -0.1
v -0.4 1.7 -0.1
v -0.3 2.1 -0.1
v -0.3 2.2 -0.1
v -0.2 2.1 -0.1
v -0.2 2.2 -0.1
v -0.2 2.3 -0.1
v -0.1 2.1 -0.1
v -0.1 2.2 -0.1
v -0.1 2.3 -0.1
v -0.1 2.4 -0.1
v 0 2.1 -0.1
v 0 2.2 -0.1
v 0.1 2.2 -0.1
v 0.1 2.4 -0.1
v -0.4 1.5 -0.2
v -0.4 1.9 -0.2
v -0.4 2 -0.2
v -0.4 2.1 -0.2
v -0.3 1.7 -0.2
v -0.3 1.8 -0.2
v -0.2 1.7 -0.2
v -0.2 1.8 -0.2
v -0.2 2.1 -0.2
v -0.2 2.2 -0.2
v -0.1 1.5 -0.2
v -0.1 1.9 -0.2
v -0.1 2.1 -0.2
v -0.1 2.2 -0.2
v 0 2 -0.2
v 0 2.1 -0.2
v -0.5 1.9 -0.3
v -0.5 2 -0.3
v 0 1.9 -0.3
v 0 2 -0.3
v -0.4 1.5 0.2
v -0.1 1.5 0.2
v -0.4 1.5 -0.2
v -0.1 1.5 -0.2
v -0.5 1.6 0.1
v -0.4 1.6 0.1
v -0.5 1.6 -0.1
v -0.4 1.6 -0.1
v -0.5 1.9 0.3
v 0 1.9 0.3
v -0.4 1.9 0.2
v -0.1 1.9 0.2
v -0.4 1.9 -0.2
v -0.1 1.9 -0.2
v -0.5 1.9 -0.3
v 0 1.9 -0.3
v 0 2.2 0.1
v 0.1 2.2 0.1
v 0 2.2 -0.1
v 0.1 2.2 -0.1
v -0.5 1.7 0.1
v -0.4 1.7 0.1
v -0.5 1.7 -0.1
v -0.4 1.7 -0.1
v -0.5 2 0.3
v 0 2 0.3
v -0.4 2 0.2
v 0 2 0.2
v -0.4 2 -0.2
v 0 2 -0.2
v -0.5 2 -0.3
v 0 2 -0.3
v -0.4 2.1 0.2
v -0.2 2.1 0.2
v -0.1 2.1 0.2
v 0 2.1 0.2
v -0.3 2.1 0.1
v -0.2 2.1 0.1
v -0.1 2.1 0.1
v 0 2.1 0.1
v -0.3 2.1 -0.1
v -0.2 2.1 -0.1
v -0.1 2.1 -0.1
v 0 2.1 -0.1
v -0.4 2.1 -0.2
v -0.2 2.1 -0.2
v -0.1 2.1 -0.2
v 0 2.1 -0.2
v -0.2 2.2 0.2
v -0.1 2.2 0.2
v -0.3 2.2 0.1
v -0.2 2.2 0.1
v -0.1 2.2 0.1
v -0.3 2.2 -0.1
v -0.2 2.2 -0.1
v -0.1 2.2 -0.1
v -0.2 2.2 -0.2
v -0.1 2.2 -0.2
v -0.2 2.3 0.1
v -0.1 2.3 0.1
v -0.2 2.3 -0.1
v -0.1 2.3 -0.1
v -0.1 2.4 0.1
v 0.1 2.4 0.1
v -0.1 2.4 -0.1
v 0.1 2.4 -0.1

# faces
f 3/2/1 2/2/1 1/2/1
f 4/2/1 2/2/1 3/2/1
f 7/3/1 6/3/1 5/3/1
f 8/3/1 6/3/1 7/3/1
f 11/5/1 10/5/1 9/5/1
f 12/5/1 10/5/1 11/5/1
f 13/5/1 11/5/1 9/5/1
f 14/5/1 10/5/1 12/5/1
f 15/5/1 13/5/1 9/5/1
f 15/5/1 14/5/1 13/5/1
f 16/5/1 10/5/1 14/5/1
f 16/5/1 14/5/1 15/5/1
f 19/1/1 18/1/1 17/1/1
f 20/1/1 18/1/1 19/1/1
f 23/1/1 22/1/1 21/1/1
f 24/1/1 22/1/1 23/1/1
f 29/1/1 26/1/1 25/1/1
f 30/1/1 26/1/1 29/1/1
f 31/1/1 28/1/1 27/1/1
f 32/1/1 28/1/1 31/1/1
f 33/1/1 31/1/1 30/1/1
f 34/1/1 31/1/1 33/1/1
f 37/4/1 36/4/1 35/4/1
f 38/4/1 36/4/1 37/4/1
f 39/5/2 40/5/2 41/5/2
f 41/5/2 40/5/2 42/5/2
f 43/1/2 44/1/2 47/1/2
f 47/1/2 44/1/2 48/1/2
f 45/1/2 46/1/2 49/1/2
f 49/1/2 46/1/2 50/1/2
f 51/3/2 52/3/2 53/3/2
f 53/3/2 52/3/2 54/3/2
f 54/3/2 52/3/2 55/3/2
f 55/3/2 52/3/2 56/3/2
f 54/1/2 55/1/2 57/1/2
f 57/1/2 55/1/2 58/1/2
f 58/1/2 55/1/2 59/1/2
f 59/1/2 55/1/2 60/1/2
f 58/1/2 59/1/2 61/1/2
f 61/1/2 59/1/2 62/1/2
f 63/4/2 64/4/2 65/4/2
f 65/4/2 64/4/2 66/4/2
f 69/3/3 68/3/3 67/3/3
f 70/3/3 68/3/3 69/3/3
f 75/5/3 72/5/3 71/5/3
f 76/5/3 72/5/3 75/5/3
f 77/5/3 75/5/3 71/5/3
f 77/6/3 76/6/3 75/6/3
f 78/5/3 72/5/3 76/5/3
f 78/6/3 76/6/3 77/6/3
f 79/1/3 74/1/3 73/1/3
f 81/5/3 77/5/3 71/5/3
f 81/5/3 78/5/3 77/5/3
f 82/5/3 72/5/3 78/5/3
f 82/5/3 78/5/3 81/5/3
f 83/1/3 80/1/3 79/1/3
f 83/1/3 79/1/3 73/1/3
f 84/1/3 80/1/3 83/1/3
f 85/1/3 83/1/3 73/1/3
f 86/1/3 83/1/3 85/1/3
f 89/2/3 88/2/3 87/2/3
f 90/2/3 88/2/3 89/2/3
f 93/1/3 92/1/3 91/1/3
f 94/1/3 92/1/3 93/1/3
f 97/1/3 95/1/3 94/1/3
f 98/1/3 95/1/3 97/1/3
f 100/1/3 97/1/3 96/1/3
f 101/4/3 99/4/3 98/4/3
f 101/1/3 97/1/3 100/1/3
f 101/4/3 98/4/3 97/4/3
f 102/4/3 99/4/3 101/4/3
f 103/4/3 99/4/3 102/4/3
f 104/2/4 105/2/4 106/2/4
f 106/2/4 105/2/4 107/2/4
f 108/1/4 109/1/4 110/1/4
f 110/1/4 109/1/4 111/1/4
f 111/1/4 112/1/4 114/1/4
f 114/1/4 112/1/4 115/1/4
f 113/1/4 114/1/4 117/1/4
f 115/4/4 116/4/4 118/4/4
f 117/1/4 114/1/4 118/1/4
f 114/4/4 115/4/4 118/4/4
f 118/4/4 116/4/4 119/4/4
f 119/4/4 116/4/4 120/4/4
f 121/5/4 122/5/4 125/5/4
f 125/5/4 122/5/4 126/5/4
f 121/5/4 125/5/4 127/5/4
f 125/6/4 126/6/4 127/6/4
f 126/5/4 122/5/4 128/5/4
f 127/6/4 126/6/4 128/6/4
f 123/1/4 124/1/4 129/1/4
f 121/5/4 127/5/4 131/5/4
f 127/5/4 128/5/4 131/5/4
f 128/5/4 122/5/4 132/5/4
f 131/5/4 128/5/4 132/5/4
f 129/1/4 130/1/4 133/1/4
f 123/1/4 129/1/4 133/1/4
f 133/1/4 130/1/4 134/1/4
f 123/1/4 133/1/4 135/1/4
f 135/1/4 133/1/4 136/1/4
f 137/3/4 138/3/4 139/3/4
f 139/3/4 138/3/4 140/3/4
f 143/5/5 142/5/5 141/5/5
f 144/5/5 142/5/5 143/5/5
f 147/2/5 146/2/5 145/2/5
f 148/2/5 146/2/5 147/2/5
f 151/3/5 150/3/5 149/3/5
f 152/3/5 150/3/5 151/3/5
f 153/3/5 151/3/5 149/3/5
f 154/3/5 150/3/5 152/3/5
f 155/3/5 153/3/5 149/3/5
f 155/3/5 154/3/5 153/3/5
f 156/3/5 150/3/5 154/3/5
f 156/3/5 154/3/5 155/3/5
f 159/4/5 158/4/5 157/4/5
f 160/4/5 158/4/5 159/4/5
f 161/2/6 162/2/6 163/2/6
f 163/2/6 162/2/6 164/2/6
f 165/3/6 166/3/6 167/3/6
f 167/3/6 166/3/6 168/3/6
f 165/3/6 167/3/6 169/3/6
f 165/3/6 169/3/6 171/3/6
f 169/3/6 170/3/6 171/3/6
f 171/3/6 170/3/6 172/3/6
f 173/1/6 174/1/6 177/1/6
f 177/1/6 174/1/6 178/1/6
f 175/1/6 176/1/6 179/1/6
f 179/1/6 176/1/6 180/1/6
f 173/1/6 177/1/6 181/1/6
f 173/1/6 181/1/6 185/1/6
f 181/1/6 182/1/6 185/1/6
f 185/1/6 182/1/6 186/1/6
f 183/1/6 184/1/6 187/1/6
f 187/1/6 184/1/6 188/1/6
f 189/1/6 190/1/6 192/1/6
f 192/1/6 190/1/6 193/1/6
f 191/1/6 192/1/6 194/1/6
f 194/1/6 192/1/6 195/1/6
f 195/1/6 196/1/6 197/1/6
f 197/1/6 196/1/6 198/1/6
f 199/1/6 200/1/6 201/1/6
f 201/1/6 200/1/6 202/1/6
f 203/4/6 204/4/6 205/4/6
f 205/4/6 204/4/6 206/4/6
