# MagicaVoxel @ Ephtracy

# group
o 

# material
mtllib +10.mtl
usemtl palette

# normals
vn -1 0 0
vn 1 0 0
vn 0 0 1
vn 0 0 -1
vn 0 -1 0
vn 0 1 0

# texcoords
vt 0.435547 0.5
vt 0.748047 0.5
vt 0.994141 0.5

# verts
v -0.7 0.1 0.1
v -0.7 0.1 -0.2
v -0.7 0.2 0
v -0.7 0.2 -0.1
v -0.7 0.9 0
v -0.7 0.9 -0.1
v -0.7 1 0.1
v -0.7 1 -0.2
v 0.7 0.1 0.1
v 0.7 0.1 -0.2
v 0.7 0.2 0
v 0.7 0.2 -0.1
v 0.7 0.9 0
v 0.7 0.9 -0.1
v 0.7 1 0.1
v 0.7 1 -0.2
v -0.7 0.1 0.1
v -0.7 1 0.1
v -0.6 0.2 0.1
v -0.6 0.9 0.1
v -0.5 0.5 0.1
v -0.5 0.6 0.1
v -0.4 0.4 0.1
v -0.4 0.5 0.1
v -0.4 0.6 0.1
v -0.4 0.7 0.1
v -0.3 0.4 0.1
v -0.3 0.5 0.1
v -0.3 0.6 0.1
v -0.3 0.7 0.1
v -0.2 0.5 0.1
v -0.2 0.6 0.1
v -0.1 0.3 0.1
v -0.1 0.8 0.1
v 0 0.3 0.1
v 0 0.8 0.1
v 0.1 0.3 0.1
v 0.1 0.8 0.1
v 0.2 0.4 0.1
v 0.2 0.7 0.1
v 0.4 0.4 0.1
v 0.4 0.7 0.1
v 0.5 0.3 0.1
v 0.5 0.8 0.1
v 0.6 0.2 0.1
v 0.6 0.9 0.1
v 0.7 0.1 0.1
v 0.7 1 0.1
v -0.7 0.1 -0.2
v -0.7 1 -0.2
v -0.6 0.2 -0.2
v -0.6 0.9 -0.2
v 0.6 0.2 -0.2
v 0.6 0.9 -0.2
v 0.7 0.1 -0.2
v 0.7 1 -0.2
v -0.7 0.1 0.1
v 0.7 0.1 0.1
v -0.6 0.1 0
v 0.6 0.1 0
v -0.6 0.1 -0.1
v 0.6 0.1 -0.1
v -0.7 0.1 -0.2
v 0.7 0.1 -0.2
v -0.7 1 0.1
v 0.7 1 0.1
v -0.6 1 0
v 0.6 1 0
v -0.6 1 -0.1
v 0.6 1 -0.1
v -0.7 1 -0.2
v 0.7 1 -0.2

# faces
f 3/3/1 2/3/1 1/3/1
f 4/3/1 2/3/1 3/3/1
f 5/3/1 3/3/1 1/3/1
f 5/2/1 4/2/1 3/2/1
f 6/3/1 2/3/1 4/3/1
f 6/2/1 4/2/1 5/2/1
f 7/3/1 5/3/1 1/3/1
f 7/3/1 6/3/1 5/3/1
f 8/3/1 2/3/1 6/3/1
f 8/3/1 6/3/1 7/3/1
f 9/3/2 10/3/2 11/3/2
f 11/3/2 10/3/2 12/3/2
f 9/3/2 11/3/2 13/3/2
f 11/2/2 12/2/2 13/2/2
f 12/3/2 10/3/2 14/3/2
f 13/2/2 12/2/2 14/2/2
f 9/3/2 13/3/2 15/3/2
f 13/3/2 14/3/2 15/3/2
f 14/3/2 10/3/2 16/3/2
f 15/3/2 14/3/2 16/3/2
f 19/3/3 18/3/3 17/3/3
f 20/3/3 18/3/3 19/3/3
f 21/2/3 20/2/3 19/2/3
f 22/2/3 20/2/3 21/2/3
f 23/2/3 21/2/3 19/2/3
f 24/3/3 22/3/3 21/3/3
f 24/2/3 21/2/3 23/2/3
f 25/2/3 20/2/3 22/2/3
f 25/3/3 22/3/3 24/3/3
f 26/2/3 20/2/3 25/2/3
f 27/3/3 24/3/3 23/3/3
f 27/2/3 23/2/3 19/2/3
f 27/3/3 26/3/3 25/3/3
f 27/3/3 25/3/3 24/3/3
f 28/3/3 26/3/3 27/3/3
f 29/3/3 26/3/3 28/3/3
f 30/2/3 20/2/3 26/2/3
f 30/3/3 26/3/3 29/3/3
f 31/3/3 29/3/3 28/3/3
f 31/2/3 28/2/3 27/2/3
f 32/2/3 30/2/3 29/2/3
f 32/3/3 29/3/3 31/3/3
f 33/2/3 27/2/3 19/2/3
f 33/2/3 31/2/3 27/2/3
f 33/2/3 32/2/3 31/2/3
f 34/2/3 20/2/3 30/2/3
f 34/2/3 32/2/3 33/2/3
f 34/2/3 30/2/3 32/2/3
f 35/2/3 33/2/3 19/2/3
f 35/3/3 34/3/3 33/3/3
f 36/2/3 20/2/3 34/2/3
f 36/3/3 34/3/3 35/3/3
f 37/2/3 35/2/3 19/2/3
f 37/2/3 36/2/3 35/2/3
f 38/2/3 20/2/3 36/2/3
f 38/2/3 36/2/3 37/2/3
f 39/3/3 38/3/3 37/3/3
f 40/3/3 38/3/3 39/3/3
f 41/3/3 39/3/3 37/3/3
f 41/2/3 40/2/3 39/2/3
f 42/3/3 38/3/3 40/3/3
f 42/2/3 40/2/3 41/2/3
f 43/2/3 37/2/3 19/2/3
f 43/3/3 41/3/3 37/3/3
f 43/3/3 42/3/3 41/3/3
f 44/3/3 38/3/3 42/3/3
f 44/3/3 42/3/3 43/3/3
f 44/2/3 20/2/3 38/2/3
f 45/3/3 19/3/3 17/3/3
f 45/2/3 43/2/3 19/2/3
f 45/2/3 44/2/3 43/2/3
f 46/2/3 20/2/3 44/2/3
f 46/2/3 44/2/3 45/2/3
f 46/3/3 18/3/3 20/3/3
f 47/3/3 45/3/3 17/3/3
f 47/3/3 46/3/3 45/3/3
f 48/3/3 18/3/3 46/3/3
f 48/3/3 46/3/3 47/3/3
f 49/3/4 50/3/4 51/3/4
f 51/3/4 50/3/4 52/3/4
f 49/3/4 51/3/4 53/3/4
f 51/2/4 52/2/4 53/2/4
f 52/3/4 50/3/4 54/3/4
f 53/2/4 52/2/4 54/2/4
f 49/3/4 53/3/4 55/3/4
f 53/3/4 54/3/4 55/3/4
f 54/3/4 50/3/4 56/3/4
f 55/3/4 54/3/4 56/3/4
f 59/3/5 58/3/5 57/3/5
f 60/3/5 58/3/5 59/3/5
f 61/3/5 59/3/5 57/3/5
f 61/2/5 60/2/5 59/2/5
f 62/3/5 58/3/5 60/3/5
f 62/2/5 60/2/5 61/2/5
f 63/3/5 61/3/5 57/3/5
f 63/3/5 62/3/5 61/3/5
f 64/3/5 58/3/5 62/3/5
f 64/3/5 62/3/5 63/3/5
f 65/3/6 66/3/6 67/3/6
f 67/3/6 66/3/6 68/3/6
f 65/3/6 67/3/6 69/3/6
f 67/2/6 68/2/6 69/2/6
f 68/3/6 66/3/6 70/3/6
f 69/2/6 68/2/6 70/2/6
f 65/3/6 69/3/6 71/3/6
f 69/3/6 70/3/6 71/3/6
f 70/3/6 66/3/6 72/3/6
f 71/3/6 70/3/6 72/3/6
